<?xml version="1.0" encoding="utf-8"?>
<!-- Generator: Adobe Illustrator 27.5.0, SVG Export Plug-In . SVG Version: 6.00 Build 0)  -->
<svg version="1.1" id="Layer_1" xmlns="http://www.w3.org/2000/svg" xmlns:xlink="http://www.w3.org/1999/xlink" x="0px" y="0px"
	 viewBox="0 0 2620.434 2000" style="enable-background:new 0 0 2620.434 2000;" xml:space="preserve">
<rect x="0" style="fill:#FFFFFF;" width="2620.434" height="2000"/>
<g>
	<g>
		<path style="fill:#DEEBE9;" d="M2418.458,454.486l2.198,1083.586c0.353,173.749-130.215,291.303-288.208,315.374
			c-73.947,11.28-145.231,15.634-219.208,16.281c-225.839,2.089-542.063-31.391-641.17-31.127
			c-23.688-0.459-48.754-0.603-53.091-0.591c-97.196-0.392-209.65,2.673-320.43,6.495c-141.709,4.819-301.084,12.038-403.992,13.297
			c-159.522,1.968-289.141-140.089-289.493-313.838l-2.198-1083.586c-0.352-173.76,128.945-325.179,288.217-315.384
			c147.909,9.104,365.499,46.096,592.208,22.483c234.327-24.406,651.569-46.187,930.238-34.502
			c41.999,1.76,80.85,4.279,115.445,7.665C2287.854,156.18,2418.105,280.726,2418.458,454.486z"/>
	</g>
	<g>
		<g>
			<path style="fill:#B2C9C6;" d="M790.861,1407.77c0,0-166.605-439.568-284.183-389.879
				c-117.577,49.688,176.905,269.813,221.35,399.312L790.861,1407.77z"/>
		</g>
		<g>
			<g>
				<path style="fill:#9BBCB6;" d="M715.116,1371.435c0,0-245.337-380.372-367.166-307.581
					c-121.829,72.791,232.427,217.176,299.619,330.246L715.116,1371.435z"/>
			</g>
			<g>
				<g>
					<path style="fill:#74A1BD;" d="M677.444,1384.447c-44.985-78.933-120.621-148.561-176.148-193.071
						c-60.198-48.254-110.361-78.185-110.861-78.481l1.854-3.121c0.501,0.297,50.883,30.357,111.279,78.77
						c55.773,44.708,131.762,114.675,177.029,194.105L677.444,1384.447z"/>
				</g>
			</g>
		</g>
		<g>
			<g>
				<g>
					<path style="fill:#CFD3A3;" d="M341.773,1390.019c61.011,31.965,23.099,127.21,102.077,129.413
						c78.994,2.158,74.17-4.269,100.865,37.677c0,0,5.274,34.869,33.259,48.152c110.413,52.409,316.461-75.371,221.523-203.373
						c-6.856-9.242-18.856-15.387-32.334-21.485c-73.126-33.03-106.624-4.528-141.949-111.211
						c-35.341-106.712-152.718-0.134-202.712-18.832c-49.992-18.699-90.911-46.542-145.842-3.266
						C221.712,1290.413,280.745,1358.097,341.773,1390.019z"/>
				</g>
			</g>
			<g>
				<g>
					<g>
						<path style="fill:#C4C695;" d="M728.045,1516.524l3.438-2.949c-1.3-1.516-133.936-152.821-468.281-253.6l-1.308,4.338
							C594.983,1364.716,726.75,1515.017,728.045,1516.524z"/>
					</g>
				</g>
				<g>
					<g>
						<path style="fill:#C4C695;" d="M554.553,1328.763c55.416-27.692,71.982-57.248,72.661-58.492l-3.978-2.17
							c-0.159,0.292-16.71,29.625-70.712,56.611L554.553,1328.763z"/>
					</g>
				</g>
				<g>
					<g>
						<path style="fill:#C4C695;" d="M533.856,1373.752c18.537-18.535,26.101-50.534,21.876-92.534
							c-3.164-31.453-11.887-57.841-11.976-58.104l-4.296,1.433c0.343,1.028,33.816,103.382-8.81,146.004L533.856,1373.752z"/>
					</g>
				</g>
				<g>
					<g>
						<path style="fill:#C4C695;" d="M447.388,1341.706c6.503-2.963,10.151-5.049,10.317-5.145l-2.278-3.914
							c-0.765,0.447-77.651,44.273-165.756,17.067l-1.335,4.327C359.329,1375.965,423.161,1352.743,447.388,1341.706z"/>
					</g>
				</g>
				<g>
					<g>
						<path style="fill:#C4C695;" d="M375.869,1430.634c26.52-17.023,38.546-38.03,43.964-52.654
							c5.898-15.92,5.483-27.699,5.464-28.194l-4.528,0.186c0.018,0.453,1.208,45.684-47.35,76.851L375.869,1430.634z"/>
					</g>
				</g>
			</g>
		</g>
	</g>
	<path style="opacity:0.4;fill:#FFFFFF;" d="M414.741,580.605c-248.629-1.103-140.066-114.551-101.012-113.449
		c39.054,1.101,42.724,41.617,71.285,22.481c28.561-19.137,54.689-59.722,94.094-28.824c39.405,30.898-24.875,66.805,35.923,71.431
		c60.798,4.626,90.485-43.119,112.03-3.836c21.546,39.283,35.793,15.412,67.98,17.721c32.187,2.309,29.876,33.757-10.648,33.851
		C643.868,580.073,425.13,580.651,414.741,580.605z"/>
	<path style="opacity:0.4;fill:#FFFFFF;" d="M1092.983,344.686c-200.088,0.492-135.159-98.815-97.466-97.874
		c37.693,0.941,41.225,35.902,68.796,19.382c27.571-16.52,52.797-51.548,90.822-24.895c38.024,26.653-24.024,57.653,34.654,61.63
		s87.342-37.229,108.127-3.337c20.786,33.893,34.542,13.29,65.607,15.275c31.065,1.985,28.827,29.122-10.286,29.213
		C1314.125,344.173,1103.01,344.662,1092.983,344.686z"/>
	<path style="opacity:0.4;fill:#FFFFFF;" d="M2206.275,717.031c-203.222,0.496-137.247-88.185-98.964-87.356
		c38.283,0.829,41.861,32.043,69.868,17.285c28.007-14.757,53.639-46.038,92.251-22.253c38.612,23.785-24.417,51.48,35.179,55.015
		c59.596,3.535,88.72-33.264,109.822-3.01c21.101,30.254,35.079,11.856,66.63,13.62c31.551,1.763,29.27,25.993-10.455,26.085
		C2430.881,716.509,2216.459,717.006,2206.275,717.031z"/>
	<g>
		<g>
			<g>
				<path style="fill:#CFD3A3;" d="M1707.71,1432.456c0,0,151.841-699.525,372.675-659.463
					c220.833,40.064-223.426,450.725-260.068,655.481L1707.71,1432.456z"/>
			</g>
			<g>
				<g>
					<path style="fill:#C4C695;" d="M1770.721,1430.783c22.734-141.868,96.021-286.994,153.497-383.755
						c62.312-104.904,119.947-177.096,120.521-177.812l-4.477-3.59c-0.578,0.718-58.466,73.225-120.98,178.471
						c-57.73,97.192-131.351,243.016-154.227,385.777L1770.721,1430.783z"/>
				</g>
			</g>
		</g>
		<g>
			<g>
				<g>
					<path style="fill:#B2C9C6;" d="M2220.253,1299.958c-74.366,49.701-12.258,167.452-113.934,181.204
						c-101.705,13.695-96.362,4.732-125.041,62.58c0,0-1.995,45.754-36.295,66.771c-135.334,82.923-447.07,0.194-314.131-232.014
						c7.426-12.971,22.221-22.472,38.783-32.208c89.864-52.75,137.056-20.572,167.937-163.207
						c30.896-142.674,197.181-21.265,259.153-52.313c61.97-31.051,110.963-72.653,187.868-24.359
						C2361.526,1154.759,2294.647,1250.31,2220.253,1299.958z"/>
				</g>
			</g>
			<g style="opacity:0.5;">
				<g>
					<g>
						<path style="fill:#74A1BD;" d="M1738.944,1516.655l-4.845-3.334c1.466-2.137,151.84-215.829,569.648-392.135l2.289,5.421
							C1889.797,1302.253,1740.406,1514.53,1738.944,1516.655z"/>
					</g>
				</g>
				<g>
					<g>
						<path style="fill:#74A1BD;" d="M1937.04,1250.245c-75.382-28.104-100.857-63.983-101.904-65.494l4.836-3.353
							c0.246,0.357,25.669,35.947,99.125,63.334L1937.04,1250.245z"/>
					</g>
				</g>
				<g>
					<g>
						<path style="fill:#74A1BD;" d="M1969.976,1305.479c-26.498-21.374-40.684-61.649-41.027-116.465
							c-0.258-41.051,7.361-76.33,7.44-76.681l5.743,1.257c-0.299,1.375-29.386,138.163,31.541,187.312L1969.976,1305.479z"/>
					</g>
				</g>
				<g>
					<g>
						<path style="fill:#74A1BD;" d="M2077.204,1252.157c-8.806-2.927-13.805-5.115-14.034-5.217l2.404-5.368
							c1.049,0.471,106.381,46.444,216.39-0.853l2.321,5.402C2195.643,1284.234,2110.014,1263.064,2077.204,1252.157z"/>
					</g>
				</g>
				<g>
					<g>
						<path style="fill:#74A1BD;" d="M2181.835,1357.11c-36.594-18.319-55.025-43.782-64.042-61.918
							c-9.813-19.741-10.905-35.009-10.948-35.651l5.873-0.384c0.04,0.588,4.75,59.156,71.753,92.694L2181.835,1357.11z"/>
					</g>
				</g>
			</g>
		</g>
		<g>
			<path style="fill:#B2C9C6;" d="M1830.685,1065.974c19.438-9.256,28.161-5.831,31.789,1.787
				c3.627,7.619,0.787,16.548-18.651,25.803c-35.41,16.861-59.093,11.215-59.093,11.215S1794.759,1083.082,1830.685,1065.974z"/>
		</g>
		<g>
			<path style="fill:#CFD3A3;" d="M1956.089,698.31c6.44-26.461,16.76-32.286,27.133-29.762
				c10.372,2.525,16.863,12.441,10.423,38.902c-11.729,48.2-36.176,66.927-36.176,66.927S1944.188,747.211,1956.089,698.31z"/>
		</g>
		<g>
			<path style="fill:#B2C9C6;" d="M1760.612,1051.214c6.475-19.187,14.497-22.838,22.018-20.299
				c7.52,2.538,11.692,10.302,5.216,29.49c-11.794,34.953-31.112,47.25-31.112,47.25S1748.644,1086.676,1760.612,1051.214z"/>
		</g>
	</g>
	<g>
		
			<ellipse transform="matrix(1 -0.0027 0.0027 1 -4.3609 3.4836)" style="fill:#BED5DC;" cx="1304.505" cy="1637.464" rx="887.783" ry="98.522"/>
	</g>
	<g>
		<g>
			<path style="fill:#B2C9C6;" d="M541.984,860.501c-7.709,11.14-13.541,12.003-17.908,8.981c-4.366-3.022-5.611-8.786,2.099-19.924
				c14.044-20.291,28.738-24.627,28.738-24.627S556.235,839.915,541.984,860.501z"/>
		</g>
		<g>
			<g>
				<g>
					<path style="fill:#B2C9C6;" d="M567.843,1073.441l-2.565,0.047c-0.006-0.394-0.956-40.174-20.299-96.552
						c-17.848-52.019-55.452-129.214-133.253-201.563l1.745-1.878c78.231,72.748,116.033,150.392,133.97,202.718
						C566.891,1032.946,567.837,1073.042,567.843,1073.441z"/>
				</g>
			</g>
			<g>
				<g>
					<path style="fill:#B2C9C6;" d="M492.411,866.873l-2.292-1.147c41.724-83.243,1.652-174.754,1.243-175.669l2.34-1.048
						C494.117,689.935,534.69,782.525,492.411,866.873z"/>
				</g>
			</g>
			<g>
				<g>
					<path style="fill:#B2C9C6;" d="M449.655,829.548c-25.901,2.729-46.841-8.174-47.081-8.303l1.203-2.263
						c0.266,0.14,27.097,14.077,57.188,5.848l0.676,2.474C457.572,828.415,453.554,829.137,449.655,829.548z"/>
				</g>
			</g>
			<g>
				<g>
					<path style="fill:#B2C9C6;" d="M557.489,1016.445c-53.003-0.437-98.141-21.503-134.155-62.608
						c-1.249-1.422-2.427-2.768-2.76-2.996c0.005,0.003,0.102,0.068,0.277,0.106l0.55-2.503c0.738,0.162,1.253,0.728,3.858,3.704
						c35.515,40.531,80.009,61.301,132.248,61.733L557.489,1016.445z"/>
				</g>
			</g>
			<g>
				<g>
					<path style="fill:#B2C9C6;" d="M480.538,996.792l-2.533-0.407c5.528-34.358-21.923-81.132-22.199-81.601l2.203-1.309
						c0.07,0.12,7.135,12.085,13.4,28.208C477.214,956.624,483.512,978.31,480.538,996.792z"/>
				</g>
			</g>
			<g>
				<g>
					<path style="fill:#B2C9C6;" d="M408.526,761.336c14.772,10.748,16.635,17.426,13.512,21.719
						c-3.125,4.294-10.051,4.577-24.825-6.169c-26.912-19.579-34.262-36.815-34.262-36.815S381.221,741.473,408.526,761.336z"/>
				</g>
			</g>
			<g>
				<g>
					<path style="fill:#B2C9C6;" d="M408.545,812.281c17.327,5.794,21.115,11.599,19.432,16.635
						c-1.684,5.034-8.203,7.394-25.529,1.6c-31.561-10.552-43.768-24.77-43.768-24.77S376.523,801.573,408.545,812.281z"/>
				</g>
			</g>
			<g>
				<g>
					<path style="fill:#B2C9C6;" d="M462.53,905.689c7.433,11.325,6.046,17.057,1.607,19.97c-4.439,2.912-10.249,1.906-17.682-9.42
						c-13.54-20.631-12.049-35.876-12.049-35.876S448.792,884.758,462.53,905.689z"/>
				</g>
			</g>
			<g>
				<g>
					<path style="fill:#B2C9C6;" d="M471.453,786.182c4.455,12.795,1.715,18.015-3.299,19.761
						c-5.014,1.746-10.405-0.644-14.859-13.437c-8.115-23.306-2.959-37.73-2.959-37.73S463.22,762.537,471.453,786.182z"/>
				</g>
			</g>
			<g>
				<g>
					<path style="fill:#B2C9C6;" d="M512.842,979.731c0.68,13.531-3.417,17.77-8.72,18.038c-5.302,0.266-9.804-3.544-10.484-17.073
						c-1.237-24.647,7.766-37.041,7.766-37.041S511.587,954.724,512.842,979.731z"/>
				</g>
			</g>
			<g>
				<g>
					<path style="fill:#B2C9C6;" d="M434.611,950.345c9.685,9.471,9.557,15.365,5.846,19.162c-3.712,3.796-9.602,4.057-19.289-5.415
						c-17.645-17.253-19.45-32.466-19.45-32.466S416.711,932.84,434.611,950.345z"/>
				</g>
			</g>
			<g>
				<g>
					<path style="fill:#B2C9C6;" d="M497.99,678.114c6.096,17.222,3.851,23.782-1.154,25.553
						c-5.006,1.771-10.876-1.915-16.972-19.138c-11.105-31.372-7.408-49.742-7.408-49.742S486.723,646.284,497.99,678.114z"/>
				</g>
			</g>
		</g>
	</g>
	<g>
		<g>
			<g>
				<g>
					<g>
						<path style="fill:#FFB27D;" d="M1485.611,761.555c0.023-12.431,31.476-24.154,31.476-24.154
							c4.064,0.751,3.744,76.34,64.261,106.892c25.999,13.126,74.757,3.022,80.635,0.47c0.783-0.34,21.845,54.769,21.845,54.769
							c-10.645,4.623-10.046,8.406-43.698,7.356C1550.046,904.078,1500.818,867.217,1485.611,761.555z"/>
					</g>
				</g>
				<g>
					<path style="fill:#331832;" d="M1711.917,1589.43c0,0-0.91,17.472-12.873,22.085c-11.963,4.612-46.362,8.138-33.856,19.724
						c7.176,6.648,41.925,3.415,51.703,3.679c9.78,0.264,18.846,4.773,26.29-1.576c8.189-6.985,1.161-43.038,1.161-43.038
						s-8.558,4.168-16.141,3.767C1717.271,1593.492,1711.917,1589.43,1711.917,1589.43z"/>
				</g>
				<g>
					<path style="fill:#764678;" d="M1640.429,1139.072c-0.579,4.722,5.608,144.741,6.283,149.607
						c15.232,109.763,27.698,221.702,36.803,274.776c3.257,18.985,18.766,33.22,37.568,34.483l10.104,0.679
						c20.329,1.366,37.318-15.671,36.392-36.494l-15.91-357.832l-3.125-117.718
						C1748.543,1086.573,1647.276,1083.239,1640.429,1139.072z"/>
				</g>
				<g>
					<path style="fill:#331832;" d="M1823.962,1592.451c0,0-0.909,17.472-12.873,22.085c-11.964,4.612-46.362,8.138-33.856,19.724
						c7.175,6.648,41.925,3.416,51.703,3.679c9.78,0.264,18.846,4.773,26.29-1.576c8.189-6.985,1.161-43.038,1.161-43.038
						s-8.557,4.168-16.141,3.767C1829.316,1596.513,1823.962,1592.451,1823.962,1592.451z"/>
				</g>
				<g>
					<path style="fill:#764678;" d="M1736.122,1062.067c0,0-4.488,78.839,16.611,230.881
						c15.232,109.764,33.723,220.454,42.828,273.528c3.257,18.985,18.766,33.221,37.567,34.483l10.104,0.679
						c20.329,1.365,37.318-15.671,36.392-36.494l-15.91-357.832l-3.125-117.718L1736.122,1062.067z"/>
				</g>
				<g>
					<path style="fill:#331832;" d="M1871.279,1152.246c-0.5,9.513-58.166,11.741-129.302,7.601
						c-71.136-4.141-107.195-18.17-106.695-27.683c0.5-9.513,26.583-24.78,108.507-6.767
						C1813.383,1140.699,1871.779,1142.733,1871.279,1152.246z"/>
				</g>
				<g>
					<path style="fill:#68A1BF;" d="M1873.292,903.578c-1.257-10.671-5.354-20.81-11.961-29.284
						c-13.824-17.735-44.083-43.32-104.331-45.273c-133.933-4.342-119.967,148.273-121.719,303.143
						c0,0,111.88-12.452,236.127,17.742C1871.409,1149.906,1882.091,978.286,1873.292,903.578z"/>
				</g>
				<g>
					<path style="fill:#68A1BF;" d="M1874.783,919.498l-40.758-11.53c0,0-163.203,30.268-193.008,10.523
						c-35.098-23.251-14.818-69.085-14.818-69.085s34.08-10.482,98.197-19.135c6.025-0.821,12.264-1.375,18.726-1.621
						c10.846-0.405,21.614,0.696,32.251,1.512C1876.768,837.944,1874.783,919.498,1874.783,919.498z"/>
				</g>
				<g>
					<path style="fill:#FFB27D;" d="M1770.079,817.946l-6.402-22.819l-1.862-6.643l-10.955-39.06l-2.618,38.489
						c0,0-1.501,17.314-1.568,23.102c-0.149,12.938-2.383,17.582-2.383,17.582c-4.761,4.82-16.696,11.939-5.978,17.023
						c13.352,6.336,38.991-2.571,48.915-14.155C1787.152,831.447,1773.093,829.833,1770.079,817.946z"/>
				</g>
				<g>
					<path style="fill:#764678;" d="M1640.429,1139.072c0,0,63.042-16.872,221.966,18.59l0.611,23.016l-220.51,1.812
						L1640.429,1139.072z"/>
				</g>
				<g>
					<path style="fill:#331832;" d="M1850.371,932.288c-3.079,6.658-20.343,5.499-38.559-2.589
						c-18.216-8.087-30.488-20.041-27.408-26.698c3.079-6.658,20.343-5.498,38.559,2.589
						C1841.179,913.677,1853.451,925.63,1850.371,932.288z"/>
				</g>
				<g>
					<g>
						<path style="fill:#5C305D;" d="M1728.219,727.727c0,0-4.286,8.695-4.255,20.707c0.031,12.012,17.565-13.896,17.565-13.896
							L1728.219,727.727z"/>
					</g>
					<g>
						
							<ellipse transform="matrix(0.3271 -0.945 0.945 0.3271 459.8459 2171.2219)" style="fill:#FFB27D;" cx="1754.432" cy="762.733" rx="41.524" ry="34.437"/>
					</g>
					<g>
						<path style="fill:#331832;" d="M1790.21,762.525l-15.98-5.049c-3.514-1.11-6.401-3.713-7.719-7.154
							c-2.269-5.923-5.743-9.44-21.092-11.997c-19.435-3.239-29.808-17.354-29.818-27.873c-0.01-10.737,11.294-15.691,19.972-8.789
							c8.678,6.901,6.995-5.996,16.573-5.361c17.898,1.188,18.402,15.276,32.744,17.768c18.804,3.268,49.36,24.345,26.726,53.979
							L1790.21,762.525z"/>
					</g>
					<g>
						<g>
							<path style="fill:#080435;" d="M1753.007,760.664c-0.152-0.147-0.237-0.361-0.209-0.587c0.046-0.382,0.392-0.655,0.775-0.61
								c0.225,0.027,5.507,0.163,6.96,6.106c0.092,0.375-0.123,0.755-0.496,0.854c-0.373,0.099-0.676-0.152-0.854-0.496
								c-1.778-3.429-5.589-5.054-5.776-5.077C1753.25,760.835,1753.113,760.766,1753.007,760.664z"/>
						</g>
					</g>
					<g>
						<path style="fill:#080435;" d="M1754.17,770.045c-0.753,1.486-2.237,2.248-3.316,1.701c-1.078-0.546-1.342-2.194-0.589-3.68
							s2.237-2.248,3.316-1.701C1754.659,766.912,1754.923,768.56,1754.17,770.045z"/>
					</g>
					<g>
						<g>
							<path style="fill:#080435;" d="M1728.127,753.437c-0.152-0.06-0.268-0.208-0.299-0.417c-0.054-0.352,0.149-0.741,0.456-0.87
								c0.18-0.076,4.292-2.286,6.809,2.224c0.159,0.285,0.082,0.709-0.182,0.959c-0.265,0.25-0.558,0.166-0.776-0.053
								c-2.178-2.189-5.503-1.917-5.653-1.855C1728.355,753.478,1728.232,753.478,1728.127,753.437z"/>
						</g>
					</g>
					<g>
						<path style="fill:#080435;" d="M1732.923,761.726c-0.13,1.661-1.212,2.93-2.417,2.836c-1.205-0.094-2.077-1.517-1.947-3.178
							c0.13-1.661,1.212-2.93,2.418-2.836C1732.182,758.642,1733.053,760.065,1732.923,761.726z"/>
					</g>
					<g>
						<path style="fill:#5C305D;" d="M1811.615,768.048c0,0-16.274,22.017-32.631,20.516c0,0,16.74-15.888-8.19-32.788
							C1770.794,755.777,1796.624,756.981,1811.615,768.048z"/>
					</g>
					<g>
						<path style="fill:#FFB27D;" d="M1786.314,776.845c-3.867,1.473-8.069-0.134-9.385-3.589c-1.317-3.456,0.751-7.451,4.618-8.924
							c3.867-1.473,8.069,0.134,9.385,3.589C1792.249,771.377,1790.181,775.372,1786.314,776.845z"/>
					</g>
					<g>
						<path style="fill:#5C305D;" d="M1770.794,755.777c0,0-2.013,20.868-6.963,23.874c-4.949,3.006-32.734-0.972-44.524-8.552l0,0
							c-2.908,13.07,3.957,26.548,16.445,31.378c4.131,1.598,8.557,2.513,13.112,2.647l0,0c9.288,0.275,18.766-1.643,24.172-9.2
							c1.645-2.3,1.572-18.541,1.572-18.541s0.648-9.39,6.939-13.052C1781.547,764.332,1776.544,757.556,1770.794,755.777z"/>
					</g>
					<g>
						<path style="fill:#331832;" d="M1739.493,700.644c-0.543,0-1.141-0.068-1.799-0.225l0.218-0.914
							c4.433,1.056,5.543-2.423,5.589-2.572l0.899,0.272C1744.389,697.243,1743.312,700.644,1739.493,700.644z"/>
					</g>
					<g>
						<path style="fill:#FFFFFF;" d="M1741.065,731.796c-0.05-0.026-4.983-2.646-9.683-6.582
							c-6.262-5.243-9.274-10.442-8.708-15.032c0.393-3.197,1.378-5.193,3.01-6.103c2.602-1.446,6.241,0.228,9.454,1.709
							c0.476,0.22,0.941,0.434,1.391,0.632l-0.19,0.43c-0.451-0.198-0.918-0.414-1.398-0.635c-3.11-1.433-6.638-3.059-9.029-1.725
							c-1.492,0.832-2.4,2.712-2.774,5.749c-1.319,10.742,17.951,21.04,18.145,21.143L1741.065,731.796z"/>
					</g>
					<g>
						<path style="fill:#FFFFFF;" d="M1792.125,719.514c-10.892-0.743-18.023-4.783-22.088-8.04
							c-4.412-3.536-6.215-6.849-6.29-6.988l0.414-0.223c0.072,0.134,7.413,13.376,27.995,14.781L1792.125,719.514z"/>
					</g>
					<g>
						<path style="fill:#FFB27D;" d="M1734.959,788.842c-6.136,0-9.396-4.159-9.438-4.215c-0.235-0.309-0.176-0.75,0.133-0.986
							c0.306-0.235,0.75-0.18,0.988,0.13c0.207,0.266,5.124,6.457,14.637,2.176c0.351-0.156,0.773-0.002,0.933,0.354
							c0.16,0.355,0.001,0.773-0.354,0.932C1739.261,788.401,1736.958,788.842,1734.959,788.842z"/>
					</g>
				</g>
				<g>
					<g>
						<path style="fill:#FFB27D;" d="M1601.116,983.98c-8.7-6.344,31.549-36.231,31.549-36.231
							c41.589,33.518,82.939,28.801,106.932,20.707c34.835-11.752,53.666-62.321,53.833-62.796c0,0,9.564-5.095,27.274,3.527
							c26.298,12.802,22.102,23.513,22.102,23.513c-1.044,3.043-27.901,69.425-92.287,83.705
							C1688.8,1030.092,1638.093,1014.791,1601.116,983.98z"/>
					</g>
				</g>
				<g style="opacity:0.5;">
					<path style="fill:#EC865C;" d="M1735.119,1013.449c-3.059,0-5.88-0.818-7.851-2.328c-1.541-1.181-2.463-2.701-2.669-4.398
						c-0.556-4.613,4.278-8.988,11.006-9.958c4.001-0.58,7.876,0.225,10.381,2.145c1.541,1.18,2.463,2.701,2.669,4.398
						c0.554,4.614-4.279,8.988-11.006,9.958l0,0C1736.796,1013.389,1735.95,1013.449,1735.119,1013.449z M1738.164,998.816
						c-0.73,0-1.48,0.054-2.238,0.163c-5.332,0.769-9.5,4.193-9.104,7.477c0.164,1.37,1.073,2.328,1.807,2.889
						c2.037,1.561,5.288,2.2,8.7,1.707c5.331-0.769,9.499-4.193,9.104-7.477c-0.164-1.37-1.073-2.328-1.807-2.89
						C1743.042,999.472,1740.722,998.816,1738.164,998.816z"/>
				</g>
				<g>
					<g>
						<g>
							<path style="fill:#FFB27D;" d="M1522.332,763.239c0,0,9.132-41.38,2.351-53.095c-6.78-11.715-24.299-21.554-21.638-13.4
								c2.661,8.155,8.939,17.635,8.939,17.635s-14.366-19.624-17.5-14.277c-3.134,5.347,9.524,22.294,9.524,22.294
								s-18.955-21.989-20.28-15.979c-1.325,6.01,13.193,22.613,13.193,22.613s-18.453-19.754-19.829-12.737
								c-1.376,7.017,15.355,16.226,12.221,21.573c-3.134,5.347-13.776,27.647,0.024,38.174L1522.332,763.239z"/>
						</g>
					</g>
				</g>
				<g>
					<path style="fill:#FFB27D;" d="M1510.105,746.167c0,0-10.346-24.828-14.401-23.736c-4.056,1.091,2.469,26.742,0.882,33.836
						c-1.587,7.095,0.016,12.352,5.644,12.471C1507.857,768.858,1516.207,759.261,1510.105,746.167z"/>
				</g>
				<g>
					<path style="fill:#E9845C;" d="M1493.076,763.897c-1.103-4.654-0.846-8.549,0.764-11.576c3.793-7.128,0.023-23.495-0.016-23.66
						l1.131-0.265c0.161,0.689,3.907,16.958-0.089,24.471c-1.474,2.77-1.695,6.391-0.659,10.763L1493.076,763.897z"/>
				</g>
				<g>
					<path style="fill:#E9845C;" d="M1513.885,746.107c-6.506-2.622-13.172-19.418-13.452-20.131l1.08-0.425
						c0.068,0.17,6.762,17.043,12.806,19.479L1513.885,746.107z"/>
				</g>
			</g>
		</g>
		<g>
			<g>
				<path style="fill:#366F90;" d="M1502.814,1213.006h-308.372c-10.796,0-19.628-8.832-19.628-19.628l0,0
					c0-10.796,8.833-19.628,19.628-19.628h308.372c10.796,0,19.629,8.832,19.629,19.628l0,0
					C1522.443,1204.173,1513.61,1213.006,1502.814,1213.006z"/>
			</g>
			<g>
				<path style="fill:#366F90;" d="M1455.542,1639.738h-213.827v-29.661c0-12.958,10.602-23.56,23.56-23.56h151.702
					c21.211,0,38.565,17.354,38.565,38.565V1639.738z"/>
			</g>
			<g>
				<rect x="1336.158" y="1207.624" style="fill:#366F90;" width="24.941" height="399.235"/>
			</g>
			<g>
				<g>
					<path style="fill:#EF8062;" d="M1595.148,955.72c0,33.945-5.529,64.061-15.477,90.483
						c-37.254,99.117-136.393,146.001-237.255,146.001c-109.337,0-220.576-75.867-250.352-177.839
						c-5.031-17.154-7.727-35.056-7.727-53.456c0-127.737,130.343-231.295,258.079-231.295
						C1470.153,729.615,1595.148,827.983,1595.148,955.72z"/>
				</g>
				<g>
					<path style="fill:#EF8062;" d="M1253.096,586.602c0,0,186.822-5.546,191.36,0c4.538,5.546,11.33,15.332-36.257,17.842
						c-31.824,1.678-31.889,111.496,33.153,147.354c65.042,35.858,74.773,56.418,74.773,56.418l-331.768-16.156
						c0,0,25.722-25.063,61.772-43.592c38.763-19.923,51.683-38.348,53.301-74.869c1.983-44.754,3.312-73.658-19.931-70.865
						C1248.443,606.466,1232.405,587.166,1253.096,586.602z"/>
				</g>
				<g>
					<path style="fill:#D9644D;" d="M1215.139,1151.089c0,0-26.235,27.898-18.202,34.562c8.033,6.664,194.97,36.184,296.942,0
						c0,0,15.872-2.538,9.82-15.79c-6.053-13.252-15.862-25.682-15.862-25.682L1215.139,1151.089z"/>
				</g>
				<g>
					<path style="fill:#E9F9F6;" d="M1352.263,896.395c0,0-10.459-2.267-14.014,3.967c-3.554,6.234-3.4,19.834,7.007,18.701
						C1355.663,917.93,1362.463,901.496,1352.263,896.395z"/>
				</g>
				<g>
					<path style="fill:#E9F9F6;" d="M1390.714,894.603c0,0-10.46-2.267-14.014,3.967c-3.554,6.234-3.4,19.835,7.007,18.701
						C1394.114,916.138,1400.915,899.704,1390.714,894.603z"/>
				</g>
				<g>
					<path style="fill:#E9F9F6;" d="M1429.237,886.912c0,0-10.46-2.267-14.014,3.967c-3.554,6.234-3.4,19.835,7.007,18.701
						C1432.637,908.447,1439.438,892.012,1429.237,886.912z"/>
				</g>
				<g>
					<path style="fill:#E9F9F6;" d="M1460.95,879.221c0,0-10.459-2.267-14.014,3.967c-3.554,6.234-3.4,19.835,7.007,18.701
						C1464.351,900.755,1471.151,884.321,1460.95,879.221z"/>
				</g>
				<g>
					<path style="fill:#E9F9F6;" d="M1496.641,864.565c0,0-10.46-2.267-14.014,3.967c-3.554,6.234-3.4,19.834,7.007,18.701
						C1500.041,886.1,1506.842,869.666,1496.641,864.565z"/>
				</g>
				<g>
					<path style="fill:#E9F9F6;" d="M1532.23,846.208c0,0-10.46-2.267-14.014,3.967c-3.554,6.234-3.4,19.835,7.007,18.701
						C1535.63,867.743,1542.431,851.309,1532.23,846.208z"/>
				</g>
				<g>
					<path style="fill:#E9F9F6;" d="M1312.012,894.603c0,0-10.46-2.267-14.014,3.967c-3.554,6.234-3.4,19.835,7.007,18.701
						C1315.412,916.138,1322.212,899.704,1312.012,894.603z"/>
				</g>
				<g>
					<path style="fill:#E9F9F6;" d="M1271.353,886.912c0,0-10.46-2.267-14.014,3.967c-3.554,6.234-3.4,19.835,7.007,18.701
						C1274.753,908.447,1281.553,892.012,1271.353,886.912z"/>
				</g>
				<g>
					<path style="fill:#E9F9F6;" d="M1232.325,879.221c0,0-10.46-2.267-14.014,3.967c-3.554,6.234-3.4,19.835,7.007,18.701
						C1235.725,900.755,1242.526,884.321,1232.325,879.221z"/>
				</g>
				<g>
					<path style="fill:#E9F9F6;" d="M1232.325,966.392c0,0-10.46-2.267-14.014,3.967c-3.554,6.234-3.4,19.834,7.007,18.701
						C1235.725,987.927,1242.526,971.492,1232.325,966.392z"/>
				</g>
				<g>
					<path style="fill:#E9F9F6;" d="M1165.216,942.244c0,0-10.46-2.267-14.014,3.967c-3.554,6.234-3.4,19.835,7.007,18.701
						C1168.616,963.779,1175.416,947.345,1165.216,942.244z"/>
				</g>
				<g>
					<path style="fill:#E9F9F6;" d="M1304.963,977.809c0,0-10.46-2.267-14.014,3.967c-3.554,6.234-3.4,19.835,7.007,18.701
						C1308.363,999.343,1315.164,982.909,1304.963,977.809z"/>
				</g>
				<g>
					<path style="fill:#E9F9F6;" d="M1369.572,977.809c0,0-10.46-2.267-14.014,3.967c-3.554,6.234-3.4,19.835,7.007,18.701
						C1372.972,999.343,1379.772,982.909,1369.572,977.809z"/>
				</g>
				<g>
					<path style="fill:#E9F9F6;" d="M1442.085,966.392c0,0-10.46-2.267-14.014,3.967c-3.554,6.234-3.4,19.834,7.007,18.701
						C1445.485,987.927,1452.286,971.492,1442.085,966.392z"/>
				</g>
				<g>
					<path style="fill:#E9F9F6;" d="M1512.638,941.233c0,0-10.46-2.267-14.014,3.967c-3.554,6.234-3.4,19.835,7.007,18.701
						C1516.038,962.768,1522.839,946.334,1512.638,941.233z"/>
				</g>
				<g>
					<path style="fill:#E9F9F6;" d="M1560.27,919.468c0,0-8.791-1.905-11.778,3.334c-2.987,5.239-2.858,16.67,5.889,15.717
						C1563.127,937.567,1568.843,923.754,1560.27,919.468z"/>
				</g>
				<g>
					<path style="fill:#E9F9F6;" d="M1110.022,914.265c0,0-8.346-1.809-11.182,3.165c-2.836,4.974-2.713,15.827,5.591,14.922
						C1112.735,931.448,1118.162,918.334,1110.022,914.265z"/>
				</g>
				<g>
					<path style="fill:#E9F9F6;" d="M1192.911,867.652c0,0-10.46-2.267-14.014,3.967c-3.554,6.234-3.4,19.834,7.007,18.701
						C1196.311,889.187,1203.111,872.753,1192.911,867.652z"/>
				</g>
				<g>
					<path style="fill:#E9F9F6;" d="M1158.61,852.997c0,0-10.46-2.267-14.013,3.967c-3.554,6.234-3.401,19.834,7.007,18.701
						C1162.01,874.531,1168.811,858.097,1158.61,852.997z"/>
				</g>
				<g>
					<path style="fill:#E9F9F6;" d="M1330.485,941.964c-138.446,0-221.782-73.122-222.618-73.87l1.51-1.689
						c0.841,0.754,85.894,75.233,226.765,73.252c140.946-2.035,231.42-81.446,232.319-82.248l1.51,1.689
						c-0.905,0.809-91.971,80.778-233.796,82.824C1334.27,941.949,1332.369,941.964,1330.485,941.964z"/>
				</g>
				<g>
					<path style="fill:#E9F9F6;" d="M1329.571,971.753c-0.636,0-1.294-0.034-1.974-0.103c-8.457-0.867-11.765-5.276-14.962-9.542
						c-3.033-4.043-5.898-7.864-13.325-8.66c-7.669-0.821-10.62,3.371-14.036,8.227c-3.073,4.371-6.558,9.324-14.084,9.904
						c-15.13,1.159-20.673-11.025-23.834-21.771c-0.819-2.783-3.854-4.982-8.326-6.031c-8.081-1.897-19.883,0.118-26.823,7.614
						c-4.411,4.77-10.479,5.806-16.644,2.838c-7.685-3.699-13.329-12.431-12.325-19.072c0.731-4.833-1.836-10.206-6.541-13.687
						c-5.562-4.117-12.685-4.6-19.538-1.319c-14.393,6.896-23.642,8.385-29.104,4.678c-3.826-2.594-5.506-7.728-4.996-15.258
						c0.364-5.373-1.046-9.629-4.189-12.649c-7.074-6.801-20.721-5.423-20.86-5.409l-0.243-2.251
						c0.6-0.065,14.823-1.514,22.668,6.02c3.653,3.508,5.296,8.366,4.885,14.441c-0.452,6.671,0.897,11.122,4.008,13.231
						c4.661,3.165,13.443,1.577,26.853-4.844c7.637-3.657,15.602-3.094,21.866,1.54c5.371,3.974,8.286,10.193,7.432,15.848
						c-0.853,5.644,4.319,13.443,11.07,16.688c3.056,1.472,8.946,3.128,13.997-2.331c7.53-8.137,20.286-10.333,29.003-8.282
						c5.367,1.258,8.912,3.955,9.982,7.597c3.102,10.542,8.095,21.169,21.49,20.15c6.459-0.496,9.345-4.6,12.403-8.946
						c3.506-4.989,7.129-10.152,16.127-9.177c8.41,0.901,11.708,5.299,14.899,9.553c3.04,4.054,5.909,7.881,13.38,8.646
						c7.52,0.775,11.91-3.55,16.549-8.123c4.751-4.682,9.742-9.464,18.148-9.328c7.543,0.174,11.738,3.817,15.792,7.337
						c4.894,4.251,9.524,8.259,20.167,5.61c9.202-2.292,13.771-7.455,18.188-12.447c4.884-5.522,9.492-10.711,19.522-10.32
						c7.398,0.309,13.04,2.941,18.02,5.262c7.497,3.495,13.417,6.253,22.471,0.216c8.574-5.718,9.637-9.549,10.868-13.983
						c0.979-3.522,2.086-7.515,7.074-12.677c6.766-6.997,14.346-3.121,21.034,0.292c4.913,2.508,9.156,4.68,12.397,2.567
						c3.462-2.256,4.36-6.93,5.312-11.876c1.25-6.489,2.666-13.844,10.364-16.982c7.228-2.939,11.767,0.951,15.417,4.073
						c3.771,3.226,5.896,4.781,9.362,2.05c4.753-3.743,5.18-9.315,5.592-14.703c0.326-4.268,0.634-8.299,2.997-11.328l1.785,1.395
						c-1.941,2.489-2.224,6.188-2.523,10.105c-0.428,5.602-0.916,11.952-6.448,16.312c-5.087,4.01-8.887,0.756-12.237-2.109
						c-3.514-3.006-7.148-6.129-13.088-3.695c-6.562,2.674-7.799,9.097-8.994,15.311c-1,5.192-2.033,10.563-6.299,13.346
						c-4.342,2.825-9.589,0.147-14.668-2.447c-6.566-3.35-12.773-6.526-18.373-0.735c-4.59,4.747-5.57,8.284-6.52,11.706
						c-1.296,4.67-2.518,9.078-11.796,15.264c-10.12,6.743-17.197,3.443-24.685-0.048c-5.02-2.342-10.21-4.762-17.154-5.052
						c-8.975-0.389-13.019,4.23-17.732,9.557c-4.43,5.008-9.452,10.683-19.339,13.143c-11.798,2.932-17.085-1.655-22.198-6.096
						c-3.926-3.409-7.631-6.627-14.359-6.784c-7.524-0.078-11.889,4.125-16.506,8.677
						C1341.542,967.25,1336.975,971.751,1329.571,971.753z"/>
				</g>
				<g>
					<path style="fill:#E9F9F6;" d="M1340.767,750.568c-39.752,0-68.742-15.957-69.192-16.211l3.338-5.921
						c0.668,0.374,67.707,37.136,136.458-4.466l3.521,5.814C1388.891,745.519,1363.126,750.568,1340.767,750.568z"/>
				</g>
				<g>
					<path style="fill:#E9F9F6;" d="M1345.497,765.2c-48.956,0-85.309-23.351-85.851-23.708l1.244-1.895
						c0.807,0.531,81.414,52.249,163.992-0.011l1.21,1.916C1398.011,759.275,1370.153,765.2,1345.497,765.2z"/>
				</g>
				<g>
					<path style="fill:#D9644D;" d="M1579.671,1046.203c-37.254,99.117-136.393,146.001-237.255,146.001
						c-109.337,0-220.576-75.867-250.352-177.839c14.253-4.079,42.692-6.209,70.088,27.011
						c38.704,46.907,65.897-3.127,107.252-5.302c41.355-2.175,23.408,48.811,63.54,48.811c40.131,0,13.347-25.742,52.233-28.167
						c38.885-2.425,14.004,40.63,51.371,28.167c37.367-12.464,20.372-67.347,65.126-72.763
						C1541.646,1007.272,1541.397,1075.163,1579.671,1046.203z"/>
				</g>
				<g>
					<path style="fill:#D9644D;" d="M1370.379,605.543c-25.067,0-53.753-0.634-82.007-1.428c-8.629-0.244-15.445-0.435-19.263-0.481
						c-14.504-0.17-20.375-3.327-22.746-5.944c-1.828-2.019-1.729-3.81-1.71-4.008l2.258,0.17c0,0.044-0.023,1.109,1.25,2.443
						c1.739,1.823,6.778,4.907,20.973,5.075c3.84,0.044,10.662,0.235,19.301,0.479c43.692,1.229,146.009,4.102,156.015-4.564
						l1.483,1.714C1440.189,603.976,1409.753,605.543,1370.379,605.543z"/>
				</g>
			</g>
		</g>
		<g>
			<g>
				<g>
					<path style="fill:#FFB27D;" d="M1632.666,947.749c0,0-4.086-38.157-16.409-47.942c-12.323-9.786-35.461-12.969-29.111-5.281
						c6.35,7.688,14.77,13.501,14.77,13.501s-21.487-13.341-22.6-6.223c-1.114,7.118,16.022,16.641,16.022,16.641
						s-26.094-12.296-24.968-5.231c1.125,7.065,19.82,16.607,19.82,16.607s-24.293-11.275-22.794-3.099
						c1.5,8.176,23.518,11.013,22.405,18.131c-1.113,7.119-3.129,35.771,16.28,41.282L1632.666,947.749z"/>
				</g>
			</g>
			<g>
				<path style="fill:#E9845C;" d="M1612.08,918.024c-0.822-4.492-7.919-7.665-7.99-7.697l0.468-1.063
					c0.316,0.139,7.733,3.46,8.664,8.55L1612.08,918.024z"/>
			</g>
			<g>
				<path style="fill:#E9845C;" d="M1608.512,931.778c-2.53-6.348-9.554-9.35-9.625-9.379l0.448-1.072
					c0.307,0.128,7.547,3.224,10.258,10.021L1608.512,931.778z"/>
			</g>
			<g>
				<path style="fill:#E9845C;" d="M1603.027,941.223c-0.469-4.841-8.908-8.597-8.993-8.634l0.468-1.064
					c0.373,0.164,9.148,4.075,9.682,9.586L1603.027,941.223z"/>
			</g>
		</g>
		<g>
			<path style="fill:#E9845C;" d="M1593.661,901.999c-0.777-0.66-7.591-6.546-7.561-10.002c0.007-0.694,0.282-1.283,0.795-1.705
				c5.729-4.69,23.16,5.272,23.9,5.698l-0.581,1.006c-4.843-2.792-18.338-9.277-22.581-5.805c-0.25,0.204-0.367,0.463-0.37,0.816
				c-0.021,2.471,5.155,7.411,7.15,9.106L1593.661,901.999z"/>
		</g>
		<g>
			<path style="fill:#F7B686;" d="M949.906,910.577c53.637,73.868,0,155.404-40.047,116.719
				C865.162,965.294,949.906,910.577,949.906,910.577z"/>
			<g>
				<path style="fill:#2F1A31;" d="M830.573,1590.865c0,0,0.458,18.302,12.843,23.466c12.385,5.163,48.272,9.823,34.861,21.589
					c-7.693,6.754-43.955,2.39-54.192,2.39c-10.238-0.001-19.849,4.461-27.458-2.39c-8.37-7.54,0.001-45.057,0.001-45.057
					s8.834,4.601,16.779,4.395C824.857,1594.963,830.573,1590.865,830.573,1590.865z"/>
			</g>
			<g>
				<path style="fill:#2F1A31;" d="M688.339,1590.861c0,0,0.459,18.302,12.844,23.466c12.385,5.163,48.271,9.823,34.861,21.59
					c-7.695,6.752-43.956,2.389-54.192,2.389c-10.239-0.001-19.851,4.461-27.459-2.392c-8.369-7.537,0.001-45.055,0.001-45.055
					s8.834,4.601,16.78,4.395C682.623,1594.958,688.339,1590.861,688.339,1590.861z"/>
			</g>
			<g>
				<path style="fill:#68A1BF;" d="M922.625,1089.099c0,0,2.289,76.616-22.165,223.593
					c-17.653,106.104-38.493,213.024-48.719,264.284c-3.658,18.336-19.079,31.743-37.355,32.475l-9.821,0.395
					c-19.762,0.792-35.8-16.182-34.357-36.364l24.81-346.79l6.115-114.14L922.625,1089.099z"/>
			</g>
			<g>
				<path style="fill:#2F1A31;" d="M698.935,1156.524c1.126,9.325,53.854,8.193,118.412,0.021s114.809-22.157,113.682-31.482
					c-1.128-9.326-53.208-10.459-117.765-2.288C748.707,1130.947,697.807,1147.198,698.935,1156.524z"/>
			</g>
			<g>
				<path style="fill:#68A1BF;" d="M848.507,1143.823l-137.829,442.748c-5.769,18.533-22.453,31.233-41.461,31.558l-8.283,0.141
					c-19.562,0.335-34.513-17.751-30.946-37.431l75.394-416.02c1.097-4.946,4.744-8.878,9.515-10.253
					C740.748,1147.11,851.043,1125.512,848.507,1143.823z"/>
			</g>
			<g>
				<path style="fill:#EF8062;" d="M720.49,901.615c0,0,18.337-51.594,83.665-49.247c65.326,2.346,114.652,88.192,126.874,272.695
					c0,0-106.973-23.457-232.286,31.266C698.743,1156.328,691.797,976.817,720.49,901.615z"/>
			</g>
			<g>
				<path style="fill:#EF8062;" d="M674.611,898.509l46.281,29.623c0,0,118.962,11.901,150.542,6.172
					c31.58-5.73,36.494-28.949,36.494-28.949s-30.042-41.207-87.21-51.442c-5.372-0.97-10.785-1.128-16.56-1.543
					c-9.696-0.688-19.393-0.391-28.897,0.633C718.778,859.1,674.611,898.509,674.611,898.509z"/>
			</g>
			<g>
				<path style="fill:#020202;" d="M786.906,1341.714l29.641-90.108c6.665-20.262,20.375-37.173,38.602-47.616l-1.152-2.01
					c-18.726,10.727-32.807,28.095-39.65,48.903l-29.642,90.108L786.906,1341.714z"/>
			</g>
			<g>
				<g>
					<path style="fill:#6F4975;" d="M848.956,840.875c0.357-0.084,8.783-2.138,11.288-8.173c1.322-3.185,0.721-6.863-1.785-10.935
						c-1.115-1.812-2.142-3.451-3.084-4.951c-6.542-10.433-8.749-13.949-7.036-22.112l-0.742-0.158
						c-1.777,8.463,0.649,12.333,7.135,22.673c0.94,1.499,1.967,3.137,3.081,4.946c2.37,3.852,2.952,7.298,1.731,10.242
						c-2.354,5.676-10.679,7.709-10.763,7.73L848.956,840.875z"/>
				</g>
				<g>
					<path style="fill:#6F4975;" d="M847.969,794.625c0,0-2.895,13.102,5.784,26.815c8.68,13.713-0.767,23.736-12.526,18.462
						c-11.759-5.275-16.242,9.718-31.275,1.43C794.92,833.044,847.969,794.625,847.969,794.625z"/>
				</g>
				<g>
					<path style="fill:#F7B686;" d="M778.492,852.558c6.496-0.696,12.138-4.772,14.721-10.772l8.096-18.802l2.349-5.458
						l13.815-32.086l-2.395,33.252l-1.44,19.958l-0.411,5.69c-0.334,4.642,2.91,8.75,7.492,9.573l0.079,0.014
						c2.459,3.997,5.854,12.125-4.289,15.352c-11.922,3.794-31.202-5.59-38.122-16.71
						C778.421,852.565,778.457,852.562,778.492,852.558z"/>
				</g>
				<g>
					<path style="fill:#2F1A31;" d="M801.275,822.433c0.005,0.184,0.018,0.367,0.034,0.551
						c0.793,10.719,12.258,15.726,12.258,15.726l0.071-0.059l1.44-19.958c-3.507-1.284-8.498-2.605-11.42-1.165
						C802.13,818.278,801.171,819.781,801.275,822.433z"/>
				</g>
				<g>
					<path style="fill:#F7B686;" d="M850.223,790.759c0-21.288-13.986-38.544-31.242-38.544c-17.253,0-31.241,17.256-31.241,38.544
						c0,21.288,13.987,38.544,31.241,38.544C836.237,829.302,850.223,812.046,850.223,790.759z"/>
				</g>
				<g>
					<path style="fill:#F7B686;" d="M791.918,796.571c3.539,3.38,8.486,3.725,11.053,0.773c2.565-2.95,1.776-8.083-1.763-11.463
						c-3.539-3.379-8.488-3.727-11.053-0.773C787.591,788.06,788.38,793.192,791.918,796.571z"/>
				</g>
				<g>
					<path style="fill:#DB6B49;" d="M835.806,815.699c0,0-10.671,0.247-21.343-3.501c0,0-0.887,10.518,10.672,11.222
						C831.856,823.831,835.806,815.699,835.806,815.699z"/>
				</g>
				<g>
					<path style="fill:#FFFFFF;" d="M835.806,815.699c0,0-2.582,2.143-8.608,2.117c-6.024-0.026-12.735-5.619-12.735-5.619
						S827.323,815.73,835.806,815.699z"/>
				</g>
				<g>
					<g>
						<path style="fill:#060633;" d="M822.003,791.131c0.208-0.057,0.389-0.207,0.475-0.424c0.145-0.362-0.03-0.775-0.393-0.922
							c-0.215-0.086-4.998-2.546-9.201,2.051c-0.265,0.29-0.259,0.735,0.025,1.005c0.284,0.27,0.679,0.194,1.006-0.025
							c3.265-2.195,7.461-1.782,7.639-1.711C821.704,791.165,821.86,791.169,822.003,791.131z"/>
					</g>
				</g>
				<g>
					<path style="fill:#060633;" d="M816.381,798.94c-0.054,1.694,0.9,3.1,2.129,3.139c1.23,0.04,2.27-1.302,2.324-2.998
						c0.054-1.696-0.899-3.099-2.129-3.139C817.477,795.903,816.434,797.245,816.381,798.94z"/>
				</g>
				<g>
					<g>
						<path style="fill:#060633;" d="M847.369,794.834c0.215,0.027,0.437-0.043,0.6-0.209c0.272-0.281,0.266-0.729-0.013-1.004
							c-0.166-0.16-3.651-4.257-9.288-1.607c-0.354,0.166-0.519,0.58-0.36,0.936c0.159,0.36,0.554,0.44,0.94,0.361
							c3.852-0.785,7.577,1.195,7.714,1.328C847.079,794.752,847.221,794.815,847.369,794.834z"/>
					</g>
				</g>
				<g>
					<path style="fill:#060633;" d="M839.196,799.912c-0.697,1.547-0.35,3.212,0.771,3.716c1.123,0.505,2.596-0.34,3.292-1.887
						c0.695-1.547,0.349-3.21-0.772-3.715C841.364,797.521,839.89,798.365,839.196,799.912z"/>
				</g>
				<g>
					<path style="fill:#6F4975;" d="M832.248,759.201c0,0-0.673,13.373-17.374,15.654c-16.701,2.28-28.219,9.346-25.977,21.377
						c2.243,12.03,29.162,36.99,9.378,46.658c-19.784,9.669-15.575-8.36-37.023-4.179c-21.451,4.179-25.318-24.462-10.549-41.085
						c14.769-16.622,8.786-60.609,64.171-58.659c55.384,1.951,35.092,46.136,35.092,46.136S832.214,773.969,832.248,759.201z"/>
				</g>
				<g>
					<path style="fill:#FFFFFF;" d="M792.579,845.365c4.167-1.682,6.73-4.188,7.615-7.448c2.434-8.969-8.019-22.518-17.239-34.471
						c-2.428-3.146-4.72-6.118-6.752-8.952c-5.639-7.873-6.125-16.891-1.296-24.122c5.292-7.929,15.371-11.284,26.309-8.746
						c10.901,2.529,18.396,0.246,22.765-2.113c4.748-2.562,6.879-5.681,6.965-5.813l-0.372-0.251
						c-0.087,0.127-8.691,12.506-29.256,7.739c-11.129-2.582-21.387,0.845-26.787,8.934c-4.86,7.285-4.36,16.723,1.306,24.634
						c2.037,2.842,4.332,5.817,6.761,8.965c9.156,11.871,19.536,25.326,17.16,34.079c-0.857,3.159-3.261,5.499-7.347,7.148
						L792.579,845.365z"/>
				</g>
				<g>
					<g>
						<path style="fill:#6F4975;" d="M845.195,820.096c-1.658,0-3.275-0.462-4.781-1.407c-6.722-4.179-9.253-16.797-5.647-28.109
							l0,0c2.209-6.93,6.339-12.115,11.031-13.843c2.803-1.024,5.616-0.785,8.118,0.803c6.721,4.16,9.252,16.757,5.645,28.089
							c-2.209,6.952-6.338,12.135-11.029,13.863C847.416,819.894,846.3,820.096,845.195,820.096z M836.093,791.021
							c-3.426,10.729-1.155,22.624,5.064,26.502c2.098,1.306,4.491,1.507,6.892,0.664c4.299-1.587,8.106-6.449,10.187-12.98
							c3.425-10.75,1.164-22.643-5.054-26.502c-2.111-1.306-4.482-1.528-6.902-0.663
							C841.98,779.628,838.173,784.472,836.093,791.021L836.093,791.021z"/>
					</g>
				</g>
				<g style="opacity:0.3;">
					<path style="fill:#FFFFFF;" d="M798.626,783.224c-2.507,11.006,1.499,22.822,8.947,26.392
						c7.449,3.571,15.519-2.456,18.027-13.461c2.505-11.005-1.5-22.822-8.949-26.392
						C809.202,766.192,801.131,772.219,798.626,783.224z"/>
				</g>
				<g style="opacity:0.3;">
					<path style="fill:#FFFFFF;" d="M834.469,791.504c-2.512,11.057,0.833,23.044,7.475,26.779
						c6.641,3.732,14.063-2.204,16.574-13.261c2.514-11.057-0.833-23.044-7.474-26.777
						C844.404,774.511,836.982,780.447,834.469,791.504z"/>
				</g>
				<g>
					<g>
						<path style="fill:#6F4975;" d="M812.838,810.994c-1.679,0-3.357-0.383-4.985-1.165c-8.217-3.838-12.667-16.536-9.925-28.31
							l0,0c1.578-6.832,5.234-12.097,10.026-14.427c3.346-1.607,6.842-1.627,10.146-0.08c8.208,3.858,12.658,16.556,9.926,28.31
							c-1.587,6.853-5.254,12.116-10.055,14.447C816.283,810.57,814.555,810.994,812.838,810.994z M813.128,767.253
							c-1.537,0-3.073,0.362-4.561,1.085c-4.35,2.129-7.826,7.172-9.294,13.502l0,0c-2.591,11.15,1.519,23.145,9.163,26.742
							c2.904,1.326,5.998,1.305,8.921-0.061c4.359-2.108,7.846-7.174,9.323-13.522c2.58-11.152-1.526-23.146-9.162-26.742
							C816.081,767.594,814.605,767.253,813.128,767.253z"/>
					</g>
				</g>
				<g>
					<g>
						<path style="fill:#6F4975;" d="M835.943,795.622c-0.291,0-0.583-0.1-0.824-0.301l0,0c-0.141-0.12-3.507-2.753-9.313-1.648
							c-0.683,0.101-1.385-0.321-1.528-1.023c-0.14-0.705,0.322-1.388,1.025-1.508c7.013-1.467,11.283,2.029,11.473,2.171
							c0.542,0.462,0.623,1.287,0.16,1.829C836.687,795.463,836.315,795.622,835.943,795.622z"/>
					</g>
				</g>
			</g>
			<g>
				<path style="fill:#2F1A31;" d="M673.951,899.532c-1.605,4.659,10.5,13.382,27.036,19.482
					c16.535,6.099,31.242,7.267,32.846,2.606c1.607-4.658-10.498-13.381-27.033-19.481
					C690.265,896.04,675.558,894.873,673.951,899.532z"/>
			</g>
			<g>
				<path style="fill:#68A1BF;" d="M750.841,1146.417c0,0,128.846-24.613,170.621-13.002l-20.032,29.686l-74.472,4.215
					L750.841,1146.417z"/>
			</g>
			<g>
				<g>
					<path style="fill:#F7B686;" d="M787.467,1060.732l0.554-33.819c0.075-4.622-3.481-8.495-8.091-8.825
						c-23.444-1.676-39.855-8.948-48.846-21.663c-12.483-17.656-11.168-45.077-7.688-64.095c1.78-9.731-1.432-16.241-13.188-22.478
						c0,0-10.113-5.563-22.584-7.688c-4.995-0.85-9.954,1.158-11.243,6.057c-2.016,7.67-4.628,19.602-5.875,33.644
						c-2.958,33.348,3.474,62.358,18.602,83.89c18.568,26.429,48.498,41.052,89.051,43.537
						C783.138,1069.597,787.385,1065.721,787.467,1060.732z"/>
				</g>
			</g>
			<g style="opacity:0.5;">
				<path style="fill:#E08B65;" d="M698.425,1016.501c-2.609-0.794-5.132-2.582-7.106-5.034c-4.178-5.187-4.578-11.822-0.891-14.791
					c1.852-1.494,4.393-1.851,7.155-1.009c2.608,0.792,5.132,2.579,7.106,5.031c4.178,5.187,4.579,11.822,0.891,14.792
					c-1.196,0.964-2.68,1.454-4.325,1.454C700.354,1016.945,699.403,1016.797,698.425,1016.501z M691.851,998.442
					c-2.667,2.148-2.101,7.461,1.234,11.602l0,0c1.692,2.102,3.824,3.624,6.002,4.286c2.022,0.614,3.823,0.398,5.072-0.607
					c2.666-2.147,2.102-7.461-1.234-11.602c-1.693-2.101-3.823-3.623-6-4.286c-0.757-0.229-1.481-0.343-2.159-0.343
					C693.631,997.492,692.632,997.812,691.851,998.442z"/>
			</g>
			<g>
				<g>
					<path style="fill:#6F4975;" d="M949.906,937.257c0,0-235.683,387.146-260.622,383.972
						c-24.938-3.172-14.569-32.007,4.983-75.959c19.552-43.952,182.727-346.468,182.727-346.468L949.906,937.257z"/>
				</g>
				<g>
					<polygon style="fill:#74A1BD;" points="990.595,879.504 949.906,937.257 876.994,898.802 909.678,836.828 					"/>
				</g>
				<g>
					<path style="fill:#9BBCB6;" d="M990.595,879.504c0,0,78.468-35.256,79.705-92.647c1.237-57.391-41.253-138.362-41.253-138.362
						s-34.809,70.518-74.447,72.812c-39.636,2.298-44.922,115.521-44.922,115.521L990.595,879.504z"/>
				</g>
				<g>
					<path style="fill:#E28569;" d="M1068.76,763.557c0,0-16.424,19.154-32.866,0.625c-16.44-18.525-33.244,4.734-53.889-4.284
						c-20.646-9.017-18.956-40.124-18.956-40.124s55.93-53.755,65.998-71.279C1039.114,630.971,1068.76,763.557,1068.76,763.557z"/>
				</g>
			</g>
			<g>
				<g>
					<path style="fill:#F7B686;" d="M982.348,937.318c0,0,14.371-13.269,2.167-26.301c-15.55-16.603-50.84-22.38-41.133-11.725
						c8.607,9.448,16.341,14.346,16.341,14.346s-31.922-20.534-34.534-10.451c-2.612,10.083,31.77,32.084,31.77,32.084
						s-40.979-21.796-40.363-11.472c0.617,10.325,31.71,30.497,31.71,30.497s-38.902-23.46-37.904-11.486
						c0.997,11.977,23.573,20.03,32.357,25.627c8.303,5.29,14.4,1.65,18.927-6.722c0,0,9.356-5.715,10.931-11.933
						c0.605-2.385,3.722-3.147,4.821-4.488C979.539,942.729,982.348,937.318,982.348,937.318z"/>
				</g>
			</g>
			<g>
				<path style="fill:#DD8964;" d="M950.073,971.66c-0.964,0-1.9-0.14-2.78-0.414c-2.389-0.742-4.593-2.071-6.926-3.478
					c-2.276-1.372-4.63-2.791-7.398-3.826l0.494-1.321c2.891,1.081,5.301,2.534,7.633,3.94c2.258,1.361,4.391,2.648,6.616,3.339
					c4.34,1.347,10.307-1.12,13.322-8.452l0.074-0.182l1.279-0.941c4.16-3.045,7.752-5.675,9.565-10.778l1.331,0.472
					c-1.959,5.513-5.895,8.395-10.061,11.445l-0.959,0.704C959.502,968.712,954.496,971.66,950.073,971.66z"/>
			</g>
			<g>
				<g>
					<g>
						<path style="fill:#F7B686;" d="M771.321,1015.943c0,0,8.233-24.919,22.332-31.019c14.097-6.101,36.719-3.237,28.783,2.401
							c-7.935,5.638-20.067,10.04-20.067,10.04s26.358-8.186,25.603-1.193c-0.754,6.992-23.747,13.892-23.747,13.892
							s32.141-7.243,29.288-0.867c-2.852,6.374-27.306,11.704-27.306,11.704s30.173-5.544,26.685,1.784
							c-3.487,7.327-24.964,4.42-25.719,11.413c-0.754,6.994-6.118,34.516-25.812,34.792L771.321,1015.943z"/>
					</g>
				</g>
				<g>
					<path style="fill:#DD8964;" d="M792.972,1003.158c1.913-4.026,9.407-5.22,9.482-5.232l-0.169-1.122
						c-0.335,0.051-8.168,1.303-10.336,5.866L792.972,1003.158z"/>
				</g>
				<g>
					<path style="fill:#DD8964;" d="M792.848,1017.028c3.995-5.342,11.377-6.391,11.451-6.401l-0.147-1.124
						c-0.325,0.043-7.934,1.125-12.213,6.848L792.848,1017.028z"/>
				</g>
				<g>
					<path style="fill:#DD8964;" d="M795.625,1027.324c1.669-4.446,10.578-5.848,10.666-5.862l-0.169-1.12
						c-0.394,0.06-9.658,1.522-11.558,6.582L795.625,1027.324z"/>
				</g>
			</g>
		</g>
	</g>
</g>
</svg>
