<?xml version="1.0" encoding="utf-8"?>
<!-- Generator: Adobe Illustrator 27.5.0, SVG Export Plug-In . SVG Version: 6.00 Build 0)  -->
<svg version="1.1" xmlns="http://www.w3.org/2000/svg" xmlns:xlink="http://www.w3.org/1999/xlink" x="0px" y="0px"
	 viewBox="0 0 500 500" style="enable-background:new 0 0 500 500;" xml:space="preserve">
<g id="BACKGROUND">
	<rect style="fill:#EAD9CC;" width="500" height="500"/>
</g>
<g id="OBJECTS">
	<g>
		<g>
			<rect style="fill:#BF9D86;" width="500" height="350.008"/>
			<rect y="16.623" style="fill:#EAD9CC;" width="500" height="6.572"/>
			<rect y="59.217" style="fill:#EAD9CC;" width="500" height="6.572"/>
			<rect y="101.81" style="fill:#EAD9CC;" width="500" height="6.572"/>
			<rect y="144.404" style="fill:#EAD9CC;" width="500" height="6.572"/>
			<rect y="186.998" style="fill:#EAD9CC;" width="500" height="6.572"/>
			<rect y="229.592" style="fill:#EAD9CC;" width="500" height="6.572"/>
			<rect y="272.185" style="fill:#EAD9CC;" width="500" height="6.572"/>
			<rect y="314.779" style="fill:#EAD9CC;" width="500" height="6.572"/>
		</g>
		<rect x="26.225" y="33.315" style="fill:#664340;" width="447.549" height="316.693"/>
		<g>
			<path style="fill:none;stroke:#14100D;stroke-width:0.75;stroke-linecap:round;stroke-linejoin:round;stroke-miterlimit:10;" d="
				M26.225,33.315c0,0,222.995,59.243,447.549,0"/>
			<path style="fill:#F67A4C;" d="M34.017,33.824l30.757,6.507c1.012,0.214,1.518,1.356,0.998,2.25L43.878,80.162L32.234,35.694
				C31.948,34.601,32.912,33.59,34.017,33.824z"/>
			<path style="fill:#FF8D8D;" d="M76.246,41.582l30.987,5.305c1.02,0.174,1.57,1.295,1.084,2.209L83.706,87.665L74.538,43.52
				C74.209,42.44,75.133,41.392,76.246,41.582z"/>
			<path style="fill:#E5A95B;" d="M121.361,48.535l31.23,3.609c1.028,0.119,1.638,1.208,1.203,2.147l-22.473,39.852l-11.561-43.58
				C119.374,49.502,120.239,48.405,121.361,48.535z"/>
			<path style="fill:#F67A4C;" d="M388.917,47.741l30.984-5.324c1.02-0.175,1.912,0.698,1.759,1.722l-6.45,43.013l-27.257-37.014
				C387.282,49.228,387.804,47.932,388.917,47.741z"/>
			<path style="fill:#FF8D8D;" d="M431.488,40.671l30.669-6.91c1.009-0.227,1.945,0.599,1.845,1.629l-8.047,45.039l-25.307-37.315
				C429.932,42.241,430.387,40.919,431.488,40.671z"/>
			<path style="fill:#406B44;" d="M166.465,53.255l31.333,2.559c1.031,0.084,1.678,1.152,1.274,2.105l-23.688,40.67l-10.452-43.253
				C164.511,54.288,165.34,53.163,166.465,53.255z"/>
			<path style="fill:#F67A4C;" d="M211.577,56.62l31.415,1.207c1.034,0.04,1.726,1.079,1.364,2.048L229.14,100.62l-19.003-41.856
				C209.67,57.736,210.449,56.576,211.577,56.62z"/>
			<path style="fill:#FF8D8D;" d="M255.947,57.7l31.424-0.938c1.034-0.031,1.796,0.959,1.5,1.951l-16.485,42.679l-17.731-41.454
				C254.12,58.944,254.818,57.733,255.947,57.7z"/>
			<path style="fill:#E5A95B;" d="M300.151,56.335l31.39-1.729c1.033-0.057,1.819,0.913,1.549,1.912l-15.403,43.081l-18.771-40.994
				C298.356,57.625,299.024,56.397,300.151,56.335z"/>
			<path style="fill:#406B44;" d="M345.404,53.352l31.315-2.782c1.03-0.091,1.849,0.852,1.612,1.859l-16.462,44.093l-17.622-40.86
				C343.653,54.701,344.279,53.452,345.404,53.352z"/>
		</g>
		<polygon style="fill:#4C2D2D;" points="455.886,350.008 455.886,180.544 365.034,180.544 365.034,139.269 200.62,139.269 
			200.62,109.663 95.911,109.663 95.911,162.25 41.903,162.25 41.903,350.008 		"/>
	</g>
	<g>
		<g>
			<path style="fill:#D97A52;" d="M324.15,184.261c0,0-17.244,9.257-22.751,12.117c-5.507,2.86-16.579-4.709-9.104-16.874
				c7.99-13.003,15.088-17.451,16.138-18.465c1.049-1.014,15.172-3.921,21.966,4.336
				C337.193,173.632,329.748,179.785,324.15,184.261z"/>
			<path style="fill:#B75E4A;" d="M295.695,174.377c6.034-9.554,12.717-13.334,13.604-14.191c1.049-1.015,14.305-3.068,21.099,5.189
				c6.794,8.257-0.65,14.41-6.249,18.887c0,0-4.678,2.511-9.94,5.322C314.21,189.583,301.466,183.001,295.695,174.377z"/>
			<path style="fill:#D97A52;" d="M271.728,154.707c0.565,12.141,5.354,30.163,13.927,37.377c13.18,11.092,21.35,0.662,18.733-5.018
				c0,0-5.581-11.126-11.552-19.386c-3.818-5.282-5.997-10.34-7.222-14.079c0,0-2.99-5.384-7.588-4.753
				C273.428,149.479,271.629,153.079,271.728,154.707z"/>
			<path style="fill:none;stroke:#14100D;stroke-width:0.75;stroke-linecap:round;stroke-linejoin:round;stroke-miterlimit:10;" d="
				M292.836,167.68c0,0,2.52,3.209,7.098,11.526"/>
			<g>
				<path style="fill:#D97A52;" d="M269.468,152.246c0,0,4.521,7.431,11.069,6.948c5.648-0.417,6.613-6.675,2.043-13.244
					c-4.989-7.172-7.126-8.442-7.948-7.917c0,0-0.493,0.283-0.817,0.956c0,0-6.489-6.779-8.619-5.01c0,0-0.921,0.758-0.785,1.307
					c0,0-2.926-1.454-4.115,0.187c0,0-0.294,0.532-0.113,1.128c0,0-1.621-0.222-2.066,1.03c-0.445,1.252,0.208,1.753,1.214,2.8
					c0,0-1.398,1.892,4.185,5.428C263.515,145.858,266.902,148.282,269.468,152.246z"/>
				
					<path style="fill:none;stroke:#160C02;stroke-width:0.75;stroke-linecap:round;stroke-linejoin:round;stroke-miterlimit:10;" d="
					M259.33,140.431"/>
				
					<path style="fill:none;stroke:#14100D;stroke-width:0.75;stroke-linecap:round;stroke-linejoin:round;stroke-miterlimit:10;" d="
					M270.753,147.974c0,0-8.637-9.956-11.422-7.544"/>
				
					<path style="fill:none;stroke:#14100D;stroke-width:0.75;stroke-linecap:round;stroke-linejoin:round;stroke-miterlimit:10;" d="
					M260.183,136.601c0,0,3.2-0.873,11.953,8.668"/>
				
					<path style="fill:none;stroke:#14100D;stroke-width:0.75;stroke-linecap:round;stroke-linejoin:round;stroke-miterlimit:10;" d="
					M274.291,143.19c0,0-4.311-6.206-9.677-8.101"/>
				
					<path style="fill:none;stroke:#14100D;stroke-width:0.75;stroke-linecap:round;stroke-linejoin:round;stroke-miterlimit:10;" d="
					M273.131,138.229c0,0,3.456,3.242,5.928,6.52"/>
			</g>
		</g>
		<g>
			<path style="fill:#D97A52;" d="M404.599,167.25c0,0,9.453,17.138,12.375,22.612c2.922,5.474-4.52,16.632-16.769,9.296
				c-13.093-7.842-17.622-14.888-18.648-15.926c-1.026-1.038-4.094-15.126,4.085-22.014
				C393.822,154.329,400.059,161.702,404.599,167.25z"/>
			<path style="fill:#B75E4A;" d="M395.04,195.815c-9.622-5.924-13.478-12.564-14.345-13.442
				c-1.026-1.038-3.231-14.269,4.948-21.157c8.179-6.888,14.417,0.485,18.956,6.033c0,0,2.565,4.65,5.435,9.879
				C410.034,177.128,403.598,189.946,395.04,195.815z"/>
			<path style="fill:#D97A52;" d="M392.906,228.329c9.672-5.376,22.429-16.58,24.84-26.492c3.708-15.239-8.105-17.679-11.678-13.244
				c0,0-6.813,9.056-11.131,17.271c-2.761,5.252-6.004,9.078-8.557,11.59c0,0-3.18,4.618-0.803,8.112
				C387.954,229.06,391.619,229.069,392.906,228.329z"/>
			<path style="fill:none;stroke:#14100D;stroke-width:0.75;stroke-linecap:round;stroke-linejoin:round;stroke-miterlimit:10;" d="
				M398.266,200.076c0,0,1.604-2.829,5.169-7.827"/>
		</g>
		<g>
			<path style="fill:#E5A95B;" d="M333.661,145.405c0,0-13.658-1.102-20.267,6.388c-6.609,7.49-15.421,19.166-15.421,19.166
				l10.134,11.235c0,0-0.998,11.798,11.118,17.746c0,0,1.659,21.026,2.981,24.991c0,0,27.033,6.316,55.734,0
				c0,0,1.542-21.369,2.203-30.841c0,0,14.763-19.791,24.456-26.841c0,0-5.124-11.396-22.913-18.76
				C374.233,145.404,333.661,145.405,333.661,145.405z"/>
			<path style="fill:#D97A52;" d="M326.847,145.671c0,0,5.3,10.49,24.44,10.49s24.863-8.889,24.863-8.889
				S354.259,144.32,326.847,145.671z"/>
			<path style="fill:#D3862A;" d="M372.148,182.595l7.995,11.495l-2.203,30.841c0,0-10.122,2.383-23.823,2.415
				C354.118,227.347,368.2,205.352,372.148,182.595z"/>
			<path style="fill:#D3862A;" d="M301.66,175.046l11.456-1.604c0,0-4.312,5.341-5.009,8.752L301.66,175.046z"/>
			<path style="fill:none;stroke:#14100D;stroke-width:0.75;stroke-linecap:round;stroke-linejoin:round;stroke-miterlimit:10;" d="
				M308.107,182.195c0,0,0.352-2.691,6.578-10.865"/>
			<path style="fill:none;stroke:#14100D;stroke-width:0.75;stroke-linecap:round;stroke-linejoin:round;stroke-miterlimit:10;" d="
				M366.898,175.046l13.246,19.044c0,0,4.552-5.716,12.457-15.132"/>
		</g>
		<g>
			<polygon style="fill:#B75E4A;" points="310.121,383.689 303.824,404.192 283.989,404.192 286.773,381.46 			"/>
			<path style="fill:#335E5D;" d="M307.987,396.419c0,0-2.693,15.487-2.903,20.092c-0.209,4.604,2.302,9-18.836,9h-25.798
				c0,0-4.638-1.888,0-10.681c4.638-8.793,21.607-7.802,21.607-7.802s-0.459-5.201-1.654-9.907
				C279.209,392.413,307.987,396.419,307.987,396.419z"/>
			
				<line style="fill:none;stroke:#14100D;stroke-width:0.75;stroke-linecap:round;stroke-linejoin:round;stroke-miterlimit:10;" x1="305.299" y1="418.801" x2="258.808" y2="418.801"/>
			<path style="fill:none;stroke:#14100D;stroke-width:0.75;stroke-linecap:round;stroke-linejoin:round;stroke-miterlimit:10;" d="
				M282.058,407.027c0,0,6.129-0.091,6.129,11.774"/>
		</g>
		<g>
			<polygon style="fill:#B75E4A;" points="372.042,383.689 368.529,404.192 348.694,404.192 348.694,381.46 			"/>
			<path style="fill:#335E5D;" d="M372.042,396.419c0,0-2.693,15.487-2.903,20.092c-0.209,4.604,2.302,9-18.836,9h-17.445
				c0,0-4.638-1.888,0-10.681c4.638-8.793,13.254-7.802,13.254-7.802s-0.459-5.201-1.654-9.907
				C343.264,392.413,372.042,396.419,372.042,396.419z"/>
			
				<line style="fill:none;stroke:#14100D;stroke-width:0.75;stroke-linecap:round;stroke-linejoin:round;stroke-miterlimit:10;" x1="369.135" y1="418.801" x2="331.215" y2="418.801"/>
			<path style="fill:none;stroke:#14100D;stroke-width:0.75;stroke-linecap:round;stroke-linejoin:round;stroke-miterlimit:10;" d="
				M346.112,407.027c0,0,13.665,0.353,14.256,11.774"/>
		</g>
		<g>
			<path style="fill:#406B44;" d="M377.94,224.932c0,0,13.191,10.972,13.652,47.879c0.461,36.907-12.456,115.335-12.456,115.335
				s-17.531,1.384-33.216,0v-99.655l-31.371,100.27c0,0-21.683,1.076-33.216,0c0,0,24.266-140.301,40.874-163.83
				C322.206,224.932,345.647,231.39,377.94,224.932z"/>
			<path style="fill:none;stroke:#14100D;stroke-width:0.75;stroke-linecap:round;stroke-linejoin:round;stroke-miterlimit:10;" d="
				M322.206,224.932c0,0,18.904,4.51,47.961,1.205"/>
			<path style="fill:none;stroke:#14100D;stroke-width:0.75;stroke-linecap:round;stroke-linejoin:round;stroke-miterlimit:10;" d="
				M389.269,249.78c0,0,6.722,28.538-3.268,90.961"/>
		</g>
		<g>
			<g>
				<path style="fill:#D97A52;" d="M378.311,225.277c0.616-0.401,1.224-0.87,1.752-1.291c2.45-1.953,1.831-0.327,0.097,1.462
					c-0.713,0.735-5.278,4.319-8.052,5.679c-2.774,1.36-4.209,2.994-3.224,4.203c0.985,1.208,4.572-0.756,4.572-0.756
					c-3.181,1.794-4.296,3.238-3.437,4.639c0.735,1.197,3.9-0.206,3.9-0.206s-0.961,0.915,0.089,1.934
					c1.049,1.02,4.258-0.509,4.258-0.509c-0.568,0.852,0.067,1.52,0.067,1.52c1.671,1.367,5.576-1.481,5.576-1.481
					c8.391-6.062,10.187-9.352,11.276-11.331c1.089-1.98,2.833-6.845,2.833-6.845c1.102-3.821-4.677-7.33-6.928-7.169
					c-1.667,0.119-2.969,0.523-4.291,1.081c-2.711,1.145-6.475,2.655-8.505,4.29l-0.354,4.437L378.311,225.277z"/>
				
					<path style="fill:none;stroke:#14100D;stroke-width:0.75;stroke-linecap:round;stroke-linejoin:round;stroke-miterlimit:10;" d="
					M378.334,241.951c0,0-0.635-0.668-0.067-1.52c0,0-3.209,1.529-4.258,0.509c-1.049-1.02-0.089-1.934-0.089-1.934
					s-3.166,1.404-3.9,0.206c-0.859-1.4,0.256-2.845,3.437-4.639c0,0-3.587,1.965-4.572,0.756c-0.985-1.208,0.45-2.843,3.224-4.203
					c1.713-0.84,4.109-2.527,5.859-3.868c1.084-0.831,1.921-1.529,2.193-1.811c1.734-1.788,2.352-3.415-0.097-1.462"/>
				
					<path style="fill:none;stroke:#14100D;stroke-width:0.75;stroke-linecap:round;stroke-linejoin:round;stroke-miterlimit:10;" d="
					M372.148,235.18c0,0,4.836-1.516,12.23-7.865"/>
				
					<path style="fill:none;stroke:#14100D;stroke-width:0.75;stroke-linecap:round;stroke-linejoin:round;stroke-miterlimit:10;" d="
					M373.92,239.005c0,0,5.375-1.975,13.039-8.779"/>
				
					<path style="fill:none;stroke:#14100D;stroke-width:0.75;stroke-linecap:round;stroke-linejoin:round;stroke-miterlimit:10;" d="
					M378.267,240.43c0,0,3.376-1.072,10.345-7.229"/>
			</g>
		</g>
		<g>
			<path style="fill:#D97A52;" d="M327.991,125.893c-0.301,6.588,3.985,13.263,13.242,11.999v9.496c0,0,3.215,3.086,10.248,2.936
				c7.537-0.16,9.613-3.612,9.613-3.612l-1.089-21.529c0.592,0.165,1.256,0.131,1.256,0.131s4.534-0.132,3.324-6.876
				c-1.138-6.345-4.58-4.503-4.58-4.503l-0.552-4.959c0,0-1.181-9.813-16.329-9.813c-11.733,0-13.613,9.913-13.613,9.913
				S328.244,120.348,327.991,125.893z"/>
			<path style="fill:#B75E4A;" d="M361.054,145.919l-1.049-20.736c0,0,5.886,1.322,4.58-6.744c0,0-1.918,5.883-7.59,6.662
				L361.054,145.919z"/>
			<path style="fill:#B75E4A;" d="M341.233,137.892v5.144c0,0,7.612-2.186,11.833-9.313
				C353.066,133.723,348.953,137.261,341.233,137.892z"/>
			<g>
				<defs>
					<path id="SVGID_1_" d="M329.298,111.075c0,0-0.011,0.116-0.525,4.936c0,0,5.644,0,6.476-3.095
						C335.25,112.916,334.945,111.13,329.298,111.075z"/>
				</defs>
				<clipPath id="SVGID_00000158025146372621462090000011651210967097052325_">
					<use xlink:href="#SVGID_1_"  style="overflow:visible;"/>
				</clipPath>
				<path style="clip-path:url(#SVGID_00000158025146372621462090000011651210967097052325_);fill:#14100D;" d="M327.587,114.875
					c0.525-0.229,1.057-0.405,1.607-0.471c0.548-0.069,1.098-0.092,1.655-0.022c0.556,0.042,1.112,0.18,1.68,0.295l0.086,0.018
					c0.538,0.107,1.07-0.254,1.218-0.846c0.157-0.628-0.179-1.279-0.749-1.454c-0.344-0.105-0.692-0.196-1.044-0.276
					c-0.362-0.036-0.716-0.113-1.084-0.11c-0.73-0.032-1.471,0.09-2.184,0.289c-0.707,0.241-1.388,0.577-1.981,1.049
					c0,0-0.61,0.431-0.152,1.208C327.028,115.217,327.587,114.875,327.587,114.875z"/>
			</g>
			<g>
				<defs>
					<path id="SVGID_00000137838048975812660050000011783327058103223695_" d="M328.948,114.387c0,0-0.418,3.564-0.812,9.028
						c0,0,4.808,0.859,6.826-0.999c0.932-0.858,1.238-2.526,1.455-4.995C336.417,117.42,334.867,113.987,328.948,114.387z"/>
				</defs>
				<clipPath id="SVGID_00000006679231626295262570000003391503495622912918_">
					<use xlink:href="#SVGID_00000137838048975812660050000011783327058103223695_"  style="overflow:visible;"/>
				</clipPath>
				<g style="clip-path:url(#SVGID_00000006679231626295262570000003391503495622912918_);">
					<g>
						<path style="fill:#14100D;" d="M334.716,122.118c-1.639-1.201-3.24-2.075-4.881-2.089c-0.817-0.006-1.651,0.117-2.526,0.386
							c-0.437,0.123-0.865,0.326-1.331,0.469c-0.447,0.193-0.894,0.404-1.41,0.562l-0.02,0.006
							c-0.095,0.029-0.196-0.024-0.224-0.119c-0.016-0.051-0.007-0.105,0.019-0.147c0.281-0.454,0.625-0.861,0.979-1.273
							c0.412-0.34,0.809-0.729,1.295-0.999c0.942-0.594,2.114-0.915,3.302-0.879c1.195,0.037,2.353,0.511,3.226,1.226
							c0.876,0.716,1.542,1.619,1.862,2.673c0.029,0.094-0.025,0.193-0.119,0.222c-0.055,0.017-0.113,0.005-0.156-0.026
							L334.716,122.118z"/>
					</g>
				</g>
			</g>
			<g>
				
					<path style="fill:none;stroke:#14100D;stroke-width:0.75;stroke-linecap:round;stroke-linejoin:round;stroke-miterlimit:10;" d="
					M335.714,118.834c-0.276,3.213-1.416,3.751-2.102,4.184c0,0-0.706,0.426-0.424,1.296c0.237,0.732,0.998,1.437,1.664,1.38"/>
				
					<path style="fill:none;stroke:#14100D;stroke-width:0.75;stroke-linecap:round;stroke-linejoin:round;stroke-miterlimit:10;" d="
					M336.485,125.202c0,0,0.428-0.555,1.092,0.036"/>
				
					<path style="fill:none;stroke:#14100D;stroke-width:0.75;stroke-linecap:round;stroke-linejoin:round;stroke-miterlimit:10;" d="
					M338.434,125.588c1.703-1.21-0.117-2.537-0.117-2.537"/>
			</g>
			<path style="fill:#14100D;" d="M341.233,139.094c6.857,0,12.037-5.579,12.037-5.579c-2.218,1.3-5.274,3.204-12.037,4.377V139.094
				z"/>
			<path style="fill:none;stroke:#14100D;stroke-width:0.75;stroke-linecap:round;stroke-linejoin:round;stroke-miterlimit:10;" d="
				M359.863,122.755c0,0,1.165-0.787,0.789-1.785c-0.376-0.998-1.254-0.693-1.288-1.77"/>
			<path style="fill:none;stroke:#14100D;stroke-width:0.75;stroke-linecap:round;stroke-linejoin:round;stroke-miterlimit:10;" d="
				M360.368,115.76c0,0,1.943-0.897,2.352,2.766"/>
			<path style="fill:none;stroke:#14100D;stroke-width:0.75;stroke-linecap:round;stroke-linejoin:round;stroke-miterlimit:10;" d="
				M358.692,124.567c0,0,0.63,0.501,1.313,0.617"/>
			<path style="fill:#14100D;" d="M346.837,114.706c-0.534-0.207-1.073-0.362-1.625-0.406c-0.551-0.047-1.101-0.048-1.654,0.045
				c-0.554,0.064-1.104,0.224-1.666,0.362l-0.085,0.021c-0.533,0.129-1.08-0.21-1.251-0.796c-0.182-0.621,0.127-1.285,0.689-1.483
				c0.34-0.119,0.683-0.224,1.032-0.317c0.36-0.051,0.711-0.142,1.079-0.153c0.728-0.061,1.473,0.031,2.194,0.2
				c0.716,0.212,1.41,0.521,2.021,0.968c0,0,0.627,0.407,0.201,1.201C347.409,115.025,346.837,114.706,346.837,114.706z"/>
			<g>
				<g>
					<path style="fill:#14100D;" d="M339.221,121.934c0.351-1.032,1.022-1.914,1.887-2.634c0.871-0.703,2.008-1.197,3.202-1.252
						c1.184-0.057,2.365,0.228,3.347,0.766c0.504,0.248,0.926,0.607,1.367,0.924c0.4,0.361,0.764,0.759,1.125,1.142l-0.892,0.179
						c0.349-0.447,0.694-0.896,1.105-1.312c0.07-0.071,0.185-0.072,0.256-0.002c0.042,0.042,0.06,0.1,0.052,0.155
						c-0.085,0.579-0.235,1.124-0.382,1.672c-0.067,0.251-0.325,0.4-0.576,0.332c-0.033-0.009-0.065-0.021-0.094-0.036l-0.222-0.117
						c-0.435-0.228-0.863-0.449-1.264-0.693c-0.438-0.166-0.84-0.399-1.259-0.544c-0.833-0.327-1.659-0.484-2.48-0.499
						c-1.646-0.028-3.305,0.853-4.881,2.102l-0.014,0.011c-0.076,0.061-0.187,0.048-0.248-0.029
						C339.211,122.052,339.203,121.989,339.221,121.934z"/>
				</g>
			</g>
			<path style="fill:none;stroke:#14100D;stroke-width:0.75;stroke-linecap:round;stroke-linejoin:round;stroke-miterlimit:10;" d="
				M333.122,128.062c3.582,4.632,7.555,0,7.555,0"/>
			<path style="fill:#14100D;" d="M328.136,110.393c0,0,1.579,0.217,4.582,0.423c0.755,0.052,2.063-4.621,2.995-4.575
				c1.168,0.059,2.009,4.836,3.447,4.874c1.534,0.041,3.22,0.066,5.05,0.067c0.554,0,1.122-3.786,1.702-3.791
				c0.475-0.004,0.959,3.776,1.452,3.769c1.204-0.017,2.46-0.045,3.767-0.086c0,0,3.321,11.452,3.17,19.046
				c0,0,2.499-3.734,5.703-16.184c0,0,3.767-1.715,4.58,4.503c0,0,5.353-22.161-17.333-23.821
				C324.565,92.958,328.136,110.393,328.136,110.393z"/>
			<path style="fill:#14100D;" d="M356.995,97.276c0,0,5.085-6.838,11.969,3.143s1.406,17.022-3.828,14.362
				C359.9,112.121,361.202,100.099,356.995,97.276z"/>
		</g>
	</g>
	<g>
		<g>
			<rect x="86.903" y="293.872" style="fill:#4C2D2D;" width="9.614" height="152.757"/>
			<rect x="320.19" y="293.872" style="fill:#4C2D2D;" width="9.614" height="152.757"/>
			<rect x="111.145" y="293.872" style="fill:#4C2D2D;" width="9.614" height="152.757"/>
			<rect x="344.432" y="293.872" style="fill:#4C2D2D;" width="9.614" height="152.757"/>
			<path style="fill:#EAD9CC;" d="M79.792,265.386l-16.256,49.281c0,0,3.916,20.311,19.612,20.311s15.382-19.355,47.088-19.355
				s16.324,19.355,44.263,19.355c27.939,0,13.185-21.291,44.263-21.291c31.078,0,13.499,21.291,43.635,21.291
				c30.136,0,17.58-21.291,45.205-21.291c27.625,0,9.684,21.291,34.821,21.291c25.138,0,32.672-26.323,32.672-26.323l-15.696-43.269
				H79.792z"/>
			<polygon style="fill:#FFFAF5;" points="361.947,272.416 359.397,265.386 79.792,265.386 77.473,272.416 			"/>
			<path style="fill:none;stroke:#14100D;stroke-width:0.75;stroke-linecap:round;stroke-linejoin:round;stroke-miterlimit:10;" d="
				M371.794,299.34c-3.328,7.431-11.691,20.856-30.472,20.856c-25.138,0-7.196-21.291-34.821-21.291s-15.068,21.291-45.205,21.291
				s-12.557-21.291-43.635-21.291c-31.078,0-16.324,21.291-44.263,21.291c-27.939,0-12.557-19.355-44.263-19.355
				s-31.392,19.355-47.088,19.355c0,0-15.302-1.701-17.097-9.82"/>
			<g>
				<rect x="250.772" y="245.298" style="fill:#F67A4C;" width="98.468" height="20.088"/>
				<rect x="272.08" y="232.823" style="fill:#FF8D8D;" width="85.209" height="12.476"/>
				
					<line style="fill:none;stroke:#14100D;stroke-width:0.75;stroke-linecap:round;stroke-linejoin:round;stroke-miterlimit:10;" x1="339.773" y1="245.298" x2="272.08" y2="245.298"/>
				
					<rect x="257.515" y="249.78" style="fill:none;stroke:#14100D;stroke-width:0.75;stroke-linecap:round;stroke-linejoin:round;stroke-miterlimit:10;" width="27.17" height="9.825"/>
				
					<rect x="314.685" y="249.78" style="fill:none;stroke:#14100D;stroke-width:0.75;stroke-linecap:round;stroke-linejoin:round;stroke-miterlimit:10;" width="27.17" height="9.825"/>
				
					<line style="fill:none;stroke:#14100D;stroke-width:0.75;stroke-linecap:round;stroke-linejoin:round;stroke-miterlimit:10;" x1="349.239" y1="239.06" x2="280.378" y2="239.06"/>
			</g>
		</g>
		<g>
			<g>
				<rect x="252.762" y="350.76" style="fill:#91411F;" width="77.136" height="95.869"/>
				<polygon style="fill:#B55C30;" points="252.762,446.629 329.898,446.629 329.898,405.223 				"/>
				<polygon style="fill:#B55C30;" points="241.346,359.735 252.762,342.654 329.898,342.654 342.432,359.735 337.401,362.25 
					329.898,350.76 308.656,362.002 274.284,362.002 252.762,350.76 245.538,361.971 				"/>
				
					<polyline style="fill:none;stroke:#14100D;stroke-width:0.75;stroke-linecap:round;stroke-linejoin:round;stroke-miterlimit:10;" points="
					342.432,359.735 337.401,362.25 329.898,350.76 308.656,362.002 274.284,362.002 				"/>
				
					<polyline style="fill:none;stroke:#14100D;stroke-width:0.75;stroke-linecap:round;stroke-linejoin:round;stroke-miterlimit:10;" points="
					245.538,361.971 241.346,359.735 252.762,342.654 294.685,342.654 				"/>
			</g>
		</g>
		<g>
			<rect x="175.932" y="370.367" style="fill:#14100D;" width="3.417" height="21.786"/>
			<rect x="278.242" y="370.367" style="fill:#14100D;" width="3.418" height="21.786"/>
			<rect x="151.678" y="386.993" style="fill:#335E5D;" width="154.235" height="59.636"/>
			<polygon style="fill:#184743;" points="305.913,386.993 305.913,446.629 151.678,446.629 			"/>
			
				<rect x="155.706" y="389.993" style="fill:none;stroke:#14100D;stroke-width:0.75;stroke-linecap:round;stroke-linejoin:round;stroke-miterlimit:10;" width="146.179" height="53.636"/>
			<g>
				
					<circle style="fill:#E5A95B;stroke:#14100D;stroke-width:0.75;stroke-linecap:round;stroke-linejoin:round;stroke-miterlimit:10;" cx="274.752" cy="416.811" r="22.756"/>
				
					<ellipse transform="matrix(0.2317 -0.9728 0.9728 0.2317 -194.3691 587.5307)" style="fill:#14100D;" cx="274.752" cy="416.811" rx="19.238" ry="19.238"/>
				<circle style="fill:#EAD9CC;" cx="274.752" cy="416.811" r="8.355"/>
			</g>
			<g>
				
					<circle style="fill:#E5A95B;stroke:#14100D;stroke-width:0.75;stroke-linecap:round;stroke-linejoin:round;stroke-miterlimit:10;" cx="182.839" cy="416.811" r="22.756"/>
				
					<ellipse transform="matrix(0.7071 -0.7071 0.7071 0.7071 -241.1776 251.3676)" style="fill:#14100D;" cx="182.839" cy="416.811" rx="19.238" ry="19.238"/>
				<circle style="fill:#EAD9CC;" cx="182.839" cy="416.811" r="8.355"/>
			</g>
			<g>
				
					<rect x="212.283" y="403.307" style="fill:none;stroke:#14100D;stroke-width:0.75;stroke-linecap:round;stroke-linejoin:round;stroke-miterlimit:10;" width="33.025" height="26.801"/>
				<rect x="207.686" y="433.966" style="fill:#14100D;" width="42.22" height="5.609"/>
				<rect x="212.283" y="403.307" style="fill:#14100D;" width="33.025" height="5.814"/>
				<g>
					<rect x="243.479" y="394.719" style="fill:#D97A52;" width="6.426" height="5.609"/>
					<rect x="221.454" y="394.719" style="fill:#D97A52;" width="7.342" height="5.609"/>
					
						<rect x="207.686" y="394.719" style="fill:none;stroke:#14100D;stroke-width:0.75;stroke-linecap:round;stroke-linejoin:round;stroke-miterlimit:10;" width="42.22" height="5.609"/>
					
						<line style="fill:none;stroke:#14100D;stroke-width:0.75;stroke-linecap:round;stroke-linejoin:round;stroke-miterlimit:10;" x1="214.112" y1="394.719" x2="214.112" y2="400.328"/>
					
						<line style="fill:none;stroke:#14100D;stroke-width:0.75;stroke-linecap:round;stroke-linejoin:round;stroke-miterlimit:10;" x1="221.454" y1="394.719" x2="221.454" y2="400.328"/>
					
						<line style="fill:none;stroke:#14100D;stroke-width:0.75;stroke-linecap:round;stroke-linejoin:round;stroke-miterlimit:10;" x1="228.795" y1="394.719" x2="228.795" y2="400.328"/>
					
						<line style="fill:none;stroke:#14100D;stroke-width:0.75;stroke-linecap:round;stroke-linejoin:round;stroke-miterlimit:10;" x1="243.479" y1="394.719" x2="243.479" y2="400.328"/>
					
						<line style="fill:none;stroke:#14100D;stroke-width:0.75;stroke-linecap:round;stroke-linejoin:round;stroke-miterlimit:10;" x1="236.137" y1="394.719" x2="236.137" y2="400.328"/>
				</g>
				
					<rect x="215.973" y="411.685" style="fill:none;stroke:#14100D;stroke-width:0.75;stroke-linecap:round;stroke-linejoin:round;stroke-miterlimit:10;" width="9.151" height="14.439"/>
				
					<rect x="232.302" y="411.685" style="fill:none;stroke:#14100D;stroke-width:0.75;stroke-linecap:round;stroke-linejoin:round;stroke-miterlimit:10;" width="9.151" height="14.439"/>
				<rect x="226.83" y="411.685" style="fill:#14100D;" width="3.931" height="14.439"/>
			</g>
			<path style="fill:#335E5D;" d="M281.66,373.858H175.931c-1.685,0-3.051-1.366-3.051-3.051v-0.879
				c0-1.685,1.366-3.051,3.051-3.051H281.66c1.685,0,3.051,1.366,3.051,3.051v0.879C284.711,372.492,283.345,373.858,281.66,373.858
				z"/>
		</g>
		<g>
			
				<line style="fill:none;stroke:#14100D;stroke-width:0.75;stroke-linecap:round;stroke-linejoin:round;stroke-miterlimit:10;" x1="90.041" y1="258.557" x2="85.679" y2="191.643"/>
			<path style="fill:#E5A95B;" d="M85.848,203.243c2.598-0.322,4.955-1.341,4.955-1.341c-0.315-0.979-1.92-2.652-1.92-2.652
				s21.132-10.426,18.399-34.172c-1.025-8.905-5.396-14.65-10.459-18.354c-11.014-8.057-26.69-6.115-35.406,4.385
				c-4.007,4.827-6.844,11.466-5.666,20.351c3.142,23.695,26.179,28.652,26.179,28.652s-1.148,2.014-1.215,3.04
				C80.715,203.151,83.249,203.565,85.848,203.243z"/>
			<path style="fill:#D3862A;" d="M83.863,141.859c4.56,0.406,9.053,2.006,12.959,4.864c5.063,3.704,9.434,9.45,10.459,18.354
				c2.733,23.746-18.399,34.172-18.399,34.172s1.604,1.673,1.92,2.652c0,0-2.356,1.019-4.955,1.341l-0.169-4.737
				c0,0,8.402-9.197,10.016-26.67C97.574,151.486,83.863,141.859,83.863,141.859z"/>
			<path style="fill:none;stroke:#14100D;stroke-width:0.75;stroke-linecap:round;stroke-linejoin:round;stroke-miterlimit:10;" d="
				M61.417,151.108c-4.007,4.827-6.844,11.466-5.666,20.351c3.142,23.695,26.179,28.652,26.179,28.652"/>
			
				<line style="fill:none;stroke:#14100D;stroke-width:0.75;stroke-linecap:round;stroke-linejoin:round;stroke-miterlimit:10;" x1="94.081" y1="259.605" x2="109.675" y2="158.663"/>
			<path style="fill:#E5A95B;" d="M98.517,265.386H84.054c0,0-4.955-3.942-1.053-7.572c3.901-3.63-1.497-6.087-1.497-6.087h21.333
				c0,0-4.933,3.244-2.037,6.087C103.751,260.712,103.255,265.386,98.517,265.386z"/>
			<path style="fill:#F67A4C;" d="M105.929,178.557c2.509,0.748,5.076,0.761,5.076,0.761c0.104-1.023-0.694-3.2-0.694-3.2
				s23.54-1.066,30.569-23.912c2.636-8.567,0.939-15.584-2.211-21.009c-6.853-11.8-21.99-16.315-34.188-10.197
				c-5.608,2.813-10.871,7.754-13.359,16.365c-6.634,22.963,12.475,36.751,12.475,36.751s-1.86,1.384-2.333,2.297
				C101.265,176.413,103.42,177.809,105.929,178.557z"/>
			<path style="fill:#DD562C;" d="M103.598,174.116c0,0-1.86,1.384-2.333,2.297c0,0,2.155,1.396,4.664,2.144
				s5.076,0.761,5.076,0.761c0.104-1.023-0.694-3.2-0.694-3.2s23.54-1.066,30.569-23.912c2.636-8.567,0.939-15.584-2.211-21.009
				C138.67,131.197,137.764,160.667,103.598,174.116z"/>
			<path style="fill:none;stroke:#14100D;stroke-width:0.75;stroke-linecap:round;stroke-linejoin:round;stroke-miterlimit:10;" d="
				M104.482,121c-5.608,2.813-10.871,7.754-13.359,16.365c-6.634,22.963,12.475,36.751,12.475,36.751s-1.86,1.384-2.333,2.297
				c0,0,2.155,1.396,4.664,2.144"/>
		</g>
		<g>
			
				<line style="fill:none;stroke:#14100D;stroke-width:0.75;stroke-linecap:round;stroke-linejoin:round;stroke-miterlimit:10;" x1="433.886" y1="297.638" x2="426.062" y2="254.282"/>
			<path style="fill:#F67A4C;" d="M427.367,264.424c2.244-0.541,4.206-1.669,4.206-1.669c-0.374-0.826-1.946-2.131-1.946-2.131
				s17.467-11.241,12.704-31.765c-1.786-7.697-6.188-12.293-10.992-15.031c-10.45-5.957-23.986-2.693-30.572,7.373
				c-3.027,4.628-4.85,10.725-2.931,18.389c5.117,20.439,25.788,22.481,25.788,22.481s-0.804,1.878-0.76,2.784
				C422.863,264.856,425.123,264.966,427.367,264.424z"/>
			<path style="fill:#DD562C;" d="M419.504,210.861c4.035-0.099,8.129,0.854,11.835,2.966c4.804,2.739,9.206,7.335,10.992,15.031
				c4.763,20.524-12.704,31.765-12.704,31.765s1.572,1.305,1.946,2.131c0,0-1.962,1.128-4.206,1.669l-0.62-4.132
				c0,0,6.441-8.893,6.11-24.358C432.472,217.924,419.504,210.861,419.504,210.861z"/>
			<path style="fill:none;stroke:#14100D;stroke-width:0.75;stroke-linecap:round;stroke-linejoin:round;stroke-miterlimit:10;" d="
				M400.767,221.201c-3.027,4.628-4.85,10.725-2.931,18.389c5.117,20.439,25.788,22.481,25.788,22.481"/>
			
				<line style="fill:none;stroke:#14100D;stroke-width:0.75;stroke-linecap:round;stroke-linejoin:round;stroke-miterlimit:10;" x1="440.739" y1="295.114" x2="454.485" y2="206.134"/>
			<path style="fill:#EAD9CC;" d="M444.612,304.566H430.15c0,0-4.955-3.942-1.053-7.572c3.901-3.63-1.497-6.087-1.497-6.087h21.333
				c0,0-4.932,3.244-2.037,6.087C449.846,299.893,449.351,304.566,444.612,304.566z"/>
			<path style="fill:#335E5D;" d="M451.183,223.671c2.212,0.66,4.475,0.671,4.475,0.671c0.092-0.902-0.611-2.821-0.611-2.821
				s20.751-0.94,26.947-21.078c2.324-7.552,0.828-13.737-1.949-18.519c-6.041-10.402-19.384-14.382-30.136-8.989
				c-4.943,2.479-9.583,6.835-11.776,14.425c-5.848,20.242,10.997,32.396,10.997,32.396s-1.639,1.22-2.057,2.025
				C447.072,221.78,448.971,223.011,451.183,223.671z"/>
			<path style="fill:#184743;" d="M449.129,219.756c0,0-1.639,1.22-2.057,2.025c0,0,1.899,1.231,4.111,1.89s4.475,0.671,4.475,0.671
				c0.092-0.902-0.611-2.821-0.611-2.821s20.751-0.94,26.947-21.078c2.324-7.552,0.828-13.737-1.949-18.519
				C480.044,181.923,479.245,207.9,449.129,219.756z"/>
			<path style="fill:none;stroke:#14100D;stroke-width:0.75;stroke-linecap:round;stroke-linejoin:round;stroke-miterlimit:10;" d="
				M449.908,172.934c-4.943,2.479-9.583,6.835-11.776,14.425c-5.848,20.242,10.997,32.396,10.997,32.396s-1.639,1.22-2.057,2.025
				c0,0,1.899,1.231,4.111,1.89"/>
		</g>
		<g>
			<rect x="440.777" y="309.407" style="fill:#D86868;" width="35.996" height="128.901"/>
			<rect x="374.834" y="309.407" style="fill:#FF8D8D;" width="79.877" height="128.901"/>
			<polygon style="fill:#D86868;" points="381.155,446.629 374.834,446.629 374.834,438.308 383.155,438.308 			"/>
			<polygon style="fill:#D86868;" points="448.39,446.629 454.711,446.629 454.711,438.308 446.39,438.308 			"/>
			<polygon style="fill:#D86868;" points="400.22,446.629 393.899,446.629 393.899,438.308 402.22,438.308 			"/>
			<polygon style="fill:#D86868;" points="467.454,446.629 473.775,446.629 473.775,438.308 465.454,438.308 			"/>
			<rect x="372.072" y="304.956" style="fill:#FF8D8D;" width="108.958" height="8.903"/>
			<polygon style="fill:#D86868;" points="454.711,313.859 374.834,313.859 374.834,321.804 454.711,337.843 			"/>
			
				<rect x="383.155" y="324.065" style="fill:none;stroke:#14100D;stroke-width:0.75;stroke-linecap:round;stroke-linejoin:round;stroke-miterlimit:10;" width="63.235" height="106.019"/>
			
				<line style="fill:none;stroke:#14100D;stroke-width:0.75;stroke-linecap:round;stroke-linejoin:round;stroke-miterlimit:10;" x1="414.773" y1="324.065" x2="414.773" y2="430.084"/>
			<path style="fill:none;stroke:#14100D;stroke-width:0.75;stroke-linecap:round;stroke-linejoin:round;stroke-miterlimit:10;" d="
				M409.319,380.401c0,1.975-1.601,3.576-3.576,3.576c-1.975,0-3.576-1.601-3.576-3.576c0-1.975,1.601-3.576,3.576-3.576
				C407.718,376.824,409.319,378.426,409.319,380.401z"/>
			<path style="fill:none;stroke:#14100D;stroke-width:0.75;stroke-linecap:round;stroke-linejoin:round;stroke-miterlimit:10;" d="
				M427.379,380.401c0,1.975-1.601,3.576-3.576,3.576c-1.975,0-3.576-1.601-3.576-3.576c0-1.975,1.601-3.576,3.576-3.576
				C425.778,376.824,427.379,378.426,427.379,380.401z"/>
			
				<line style="fill:none;stroke:#14100D;stroke-width:0.75;stroke-linecap:round;stroke-linejoin:round;stroke-miterlimit:10;" x1="374.834" y1="438.308" x2="420.227" y2="438.308"/>
			
				<line style="fill:none;stroke:#14100D;stroke-width:0.75;stroke-linecap:round;stroke-linejoin:round;stroke-miterlimit:10;" x1="402.22" y1="313.859" x2="443.077" y2="313.859"/>
			
				<line style="fill:none;stroke:#14100D;stroke-width:0.75;stroke-linecap:round;stroke-linejoin:round;stroke-miterlimit:10;" x1="454.711" y1="329.249" x2="454.711" y2="398.694"/>
			
				<line style="fill:none;stroke:#14100D;stroke-width:0.75;stroke-linecap:round;stroke-linejoin:round;stroke-miterlimit:10;" x1="452.938" y1="304.956" x2="452.938" y2="313.859"/>
		</g>
		<g>
			<g>
				<path style="fill:#184743;" d="M87.424,368.007c-1.103-2.256,0.215-6.357-1.293-9.228c-1.316-2.506-5.019-4.512-6.65-7.419
					c-1.54-2.745-0.992-6.371-2.819-9.421c-1.714-2.862-5.743-4.401-7.713-7.488c-1.551-2.431-0.996-6.37-2.708-8.916
					c-1.919-2.853-6.114-4.461-8.238-7.431c-1.938-2.709-1.788-6.771-3.899-9.554c-1.77-2.333-5.636-3.301-7.529-5.672
					c-1.441-1.805-0.883-5.007-2.396-6.826c-1.645-1.978-5.178-2.581-6.909-4.57c-1.419-1.631-1.022-4.647-2.499-6.28
					c-1.222-1.351-6.653-0.255-7.915-1.605c-1.097-1.174-5.793-4.215-7.177-3.399c-1.653,0.974,0.256,6.313-4.213,14.433
					c-0.883,1.604,3.877,4.447,4.413,6.571c0.569,2.254-1.756,3.981-1.095,6.56c0.556,2.17,4.816,3.783,5.428,6.139
					c0.725,2.792-2.187,6.36-1.395,9.352c0.849,3.206,3.852,6.269,4.761,9.625c1.058,3.904,0.032,8.119,1.148,12.103
					c0.745,2.659,4.099,4.987,4.861,7.633c1.003,3.488-0.583,7.283,0.433,10.671c0.78,2.601,4.292,4.196,5.07,6.692
					c0.791,2.539-1.152,5.979-0.37,8.368c0.856,2.619,3.974,4.172,4.808,6.557c0.677,1.937-0.925,4.751-0.27,6.501
					c0,0,8.613,12.24,30.372-1.343C95.387,376.475,87.424,368.007,87.424,368.007z"/>
				
					<line style="fill:none;stroke:#14100D;stroke-width:0.75;stroke-linecap:round;stroke-linejoin:round;stroke-miterlimit:10;" x1="19.677" y1="280.197" x2="73.628" y2="390.058"/>
				
					<polyline style="fill:none;stroke:#14100D;stroke-width:0.75;stroke-linecap:round;stroke-linejoin:round;stroke-miterlimit:10;" points="
					34.018,363.283 64.072,370.6 76.661,341.938 				"/>
				
					<polyline style="fill:none;stroke:#14100D;stroke-width:0.75;stroke-linecap:round;stroke-linejoin:round;stroke-miterlimit:10;" points="
					28.062,336.16 50.458,342.877 62.121,321.806 				"/>
				
					<polyline style="fill:none;stroke:#14100D;stroke-width:0.75;stroke-linecap:round;stroke-linejoin:round;stroke-miterlimit:10;" points="
					24.21,313.899 37.766,317.031 46.573,302.878 				"/>
			</g>
			<g>
				<path style="fill:#27592A;" d="M92.468,347.526c-0.247-2.005,1.665-4.799,1.276-7.377c-0.339-2.25-2.49-4.729-2.956-7.366
					c-0.441-2.49,0.811-5.119,0.24-7.914c-0.536-2.624-3.03-4.83-3.694-7.69c-0.523-2.253,0.808-5.119,0.198-7.501
					c-0.684-2.669-3.279-4.97-4.081-7.781c-0.731-2.564,0.341-5.627-0.496-8.292c-0.702-2.234-3.216-3.962-3.996-6.257
					c-0.594-1.747,0.564-4.049-0.077-5.825c-0.697-1.931-3.062-3.296-3.817-5.257c-0.62-1.608,0.38-3.809-0.281-5.435
					c-0.546-1.344-4.662-1.896-5.237-3.25c-0.499-1.177-3.11-4.7-4.286-4.431c-1.405,0.321-1.319,4.886-6.423,9.943
					c-1.008,0.999,1.695,4.387,1.57,6.146c-0.132,1.866-2.193,2.59-2.337,4.728c-0.121,1.799,2.519,4.121,2.393,6.076
					c-0.149,2.317-3.065,4.297-3.214,6.784c-0.16,2.665,1.243,5.772,1.091,8.567c-0.177,3.251-1.908,6.207-2.063,9.535
					c-0.104,2.22,1.724,4.857,1.635,7.072c-0.118,2.92-2.146,5.412-2.23,8.259c-0.065,2.186,2.049,4.301,2.007,6.406
					c-0.042,2.141-2.239,4.271-2.253,6.295c-0.015,2.219,1.829,4.202,1.854,6.236c0.02,1.652-1.786,3.391-1.737,4.895
					c0,0,3.203,11.549,21.878,6.743C96.107,356.03,92.468,347.526,92.468,347.526z"/>
				
					<line style="fill:none;stroke:#14100D;stroke-width:0.75;stroke-linecap:round;stroke-linejoin:round;stroke-miterlimit:10;" x1="65.26" y1="263.15" x2="77.432" y2="360.835"/>
				
					<polyline style="fill:none;stroke:#14100D;stroke-width:0.75;stroke-linecap:round;stroke-linejoin:round;stroke-miterlimit:10;" points="
					55.683,330.26 75.276,343.534 91.027,324.869 				"/>
				
					<polyline style="fill:none;stroke:#14100D;stroke-width:0.75;stroke-linecap:round;stroke-linejoin:round;stroke-miterlimit:10;" points="
					57.905,308.026 72.205,318.883 85.493,305.778 				"/>
				
					<polyline style="fill:none;stroke:#14100D;stroke-width:0.75;stroke-linecap:round;stroke-linejoin:round;stroke-miterlimit:10;" points="
					60.464,290.044 69.341,295.902 78.958,287.348 				"/>
			</g>
			<g>
				<path style="fill:#335E5D;" d="M64.346,388.851c0,0,15.252-0.289,25.755-5.492c4.657-2.307,8.397-12.022,11.198-24.784
					c0.109-0.497-3.023-2.806-2.917-3.312c0.165-0.785,3.566,0.226,3.724-0.579c0.278-1.416,0.545-2.861,0.801-4.331
					c0.202-1.159-4.159-4.384-3.97-5.571c0.226-1.418,4.999-0.802,5.206-2.251c0.858-6.01,1.553-12.253,2.083-18.415
					c0.097-1.13-2.705-2.711-2.619-3.833c0.093-1.21,3.073-1.96,3.153-3.158c0.224-3.357,0.397-6.653,0.519-9.834
					c0.051-1.332-1.027-2.361-2.164-2.067c-3.664,0.947-11.407,3.569-20.3,10.263c-0.995,0.749,0.179,5.065-0.841,5.919
					c-0.948,0.794-4.088-1.881-5.05-0.991c-0.953,0.882-1.912,1.813-2.873,2.795c-0.62,0.634,0.721,4,0.1,4.677
					c-0.501,0.546-2.964-1.605-3.465-1.029c-3.045,3.499-6.076,7.543-8.991,12.215c-0.868,1.391,1.708,5.325,0.863,6.83
					c-0.438,0.781-4.306-0.91-4.737-0.097c-1.527,2.879-3.006,5.958-4.42,9.251C55.403,355.056,52.702,367.379,64.346,388.851z"/>
				
					<path style="fill:none;stroke:#14100D;stroke-width:0.75;stroke-linecap:round;stroke-linejoin:round;stroke-miterlimit:10;" d="
					M106.253,305.439c0,0-31.748,36.44-41.908,83.411"/>
				
					<polyline style="fill:none;stroke:#14100D;stroke-width:0.75;stroke-linecap:round;stroke-linejoin:round;stroke-miterlimit:10;" points="
					99.974,364.185 69.926,369.271 59.823,345.806 				"/>
				
					<polyline style="fill:none;stroke:#14100D;stroke-width:0.75;stroke-linecap:round;stroke-linejoin:round;stroke-miterlimit:10;" points="
					104.62,338.183 79.205,347.496 72.688,326.858 				"/>
				
					<polyline style="fill:none;stroke:#14100D;stroke-width:0.75;stroke-linecap:round;stroke-linejoin:round;stroke-miterlimit:10;" points="
					88.995,312.57 90.278,327.086 106.226,324.116 				"/>
			</g>
			<g>
				<polygon style="fill:#F67A4C;" points="88.617,446.796 45.226,446.796 40.68,388.89 93.342,388.89 				"/>
				
					<rect x="36.698" y="383.173" transform="matrix(-1 -1.224647e-16 1.224647e-16 -1 134.0229 773.384)" style="fill:#F67A4C;" width="60.626" height="7.037"/>
				<path style="fill:#DD562C;" d="M93.235,390.211l-0.882,10.813c0,0-26.075,4.526-50.658,0l-1.014-10.813H93.235z"/>
				
					<line style="fill:none;stroke:#14100D;stroke-width:0.75;stroke-linecap:round;stroke-linejoin:round;stroke-miterlimit:10;" x1="45.226" y1="446.796" x2="40.899" y2="391.68"/>
				
					<polyline style="fill:none;stroke:#14100D;stroke-width:0.75;stroke-linecap:round;stroke-linejoin:round;stroke-miterlimit:10;" points="
					91.457,411.99 88.617,446.796 61.434,446.796 				"/>
				
					<line style="fill:none;stroke:#14100D;stroke-width:0.75;stroke-linecap:round;stroke-linejoin:round;stroke-miterlimit:10;" x1="97.324" y1="390.211" x2="65.436" y2="390.211"/>
			</g>
		</g>
		<g>
			<g>
				<path style="fill:#FFFAF5;" d="M466.162,334.433h-3.352c-0.981,0-1.777-0.796-1.777-1.777v-9.242c0-0.39,0.128-0.77,0.365-1.079
					l1.676-2.192c0.711-0.93,2.112-0.93,2.823,0l1.676,2.192c0.237,0.31,0.365,0.689,0.365,1.079v9.242
					C467.939,333.637,467.143,334.433,466.162,334.433z M464.486,320.909c-0.475,0-0.86,0.385-0.86,0.86
					c0,0.475,0.385,0.86,0.86,0.86c0.475,0,0.86-0.385,0.86-0.86C465.346,321.293,464.961,320.909,464.486,320.909z"/>
				
					<line style="fill:none;stroke:#14100D;stroke-width:0.75;stroke-linecap:round;stroke-linejoin:round;stroke-miterlimit:10;" x1="462.81" y1="334.433" x2="466.162" y2="334.433"/>
			</g>
			
				<line style="fill:none;stroke:#14100D;stroke-width:0.75;stroke-linecap:round;stroke-linejoin:round;stroke-miterlimit:10;" x1="464.486" y1="313.698" x2="464.486" y2="320.909"/>
		</g>
		<g>
			<g>
				<path style="fill:#FFFAF5;" d="M321.866,376.743h-3.352c-0.981,0-1.777-0.796-1.777-1.777v-9.242c0-0.39,0.128-0.77,0.365-1.079
					l1.676-2.192c0.711-0.93,2.112-0.93,2.823,0l1.676,2.192c0.237,0.31,0.365,0.689,0.365,1.079v9.242
					C323.643,375.947,322.847,376.743,321.866,376.743z M320.19,363.218c-0.475,0-0.86,0.385-0.86,0.86
					c0,0.475,0.385,0.86,0.86,0.86c0.475,0,0.86-0.385,0.86-0.86C321.05,363.603,320.665,363.218,320.19,363.218z"/>
				
					<line style="fill:none;stroke:#14100D;stroke-width:0.75;stroke-linecap:round;stroke-linejoin:round;stroke-miterlimit:10;" x1="318.514" y1="376.743" x2="321.866" y2="376.743"/>
			</g>
			
				<line style="fill:none;stroke:#14100D;stroke-width:0.75;stroke-linecap:round;stroke-linejoin:round;stroke-miterlimit:10;" x1="320.19" y1="356.008" x2="320.19" y2="363.218"/>
		</g>
		<g>
			<g>
				<path style="fill:#FFFAF5;" d="M267.835,223.124h-3.352c-0.981,0-1.777-0.796-1.777-1.777v-9.242c0-0.39,0.128-0.77,0.365-1.079
					l1.676-2.192c0.711-0.93,2.112-0.93,2.823,0l1.676,2.192c0.237,0.31,0.365,0.689,0.365,1.079v9.242
					C269.612,222.328,268.817,223.124,267.835,223.124z M266.159,209.6c-0.475,0-0.86,0.385-0.86,0.86c0,0.475,0.385,0.86,0.86,0.86
					c0.475,0,0.86-0.385,0.86-0.86C267.019,209.984,266.634,209.6,266.159,209.6z"/>
				
					<line style="fill:none;stroke:#14100D;stroke-width:0.75;stroke-linecap:round;stroke-linejoin:round;stroke-miterlimit:10;" x1="264.483" y1="223.124" x2="267.835" y2="223.124"/>
			</g>
			
				<line style="fill:none;stroke:#14100D;stroke-width:0.75;stroke-linecap:round;stroke-linejoin:round;stroke-miterlimit:10;" x1="266.159" y1="202.389" x2="266.159" y2="209.6"/>
		</g>
		<g>
			<g>
				<path style="fill:#FFFAF5;" d="M53.776,410.696h-3.352c-0.981,0-1.777-0.796-1.777-1.777v-9.242c0-0.39,0.128-0.77,0.365-1.079
					l1.676-2.192c0.711-0.93,2.112-0.93,2.823,0l1.676,2.192c0.237,0.31,0.365,0.689,0.365,1.079v9.242
					C55.553,409.9,54.758,410.696,53.776,410.696z M52.101,397.172c-0.475,0-0.86,0.385-0.86,0.86c0,0.475,0.385,0.86,0.86,0.86
					c0.475,0,0.86-0.385,0.86-0.86C52.96,397.557,52.575,397.172,52.101,397.172z"/>
				
					<line style="fill:none;stroke:#14100D;stroke-width:0.75;stroke-linecap:round;stroke-linejoin:round;stroke-miterlimit:10;" x1="50.425" y1="410.696" x2="53.776" y2="410.696"/>
			</g>
			
				<line style="fill:none;stroke:#14100D;stroke-width:0.75;stroke-linecap:round;stroke-linejoin:round;stroke-miterlimit:10;" x1="52.101" y1="389.961" x2="52.101" y2="397.172"/>
		</g>
	</g>
	<g>
		<g>
			<polygon style="fill:#B75E4A;" points="191.158,443.306 197.455,463.81 217.29,463.81 214.506,441.078 			"/>
			<path style="fill:#FF8D8D;" d="M193.292,456.036c0,0,2.693,15.488,2.903,20.092c0.209,4.604-2.302,8.999,18.836,8.999h25.798
				c0,0,4.638-1.889,0-10.681c-4.638-8.793-21.607-7.802-21.607-7.802s0.459-5.201,1.654-9.907
				C222.069,452.031,193.292,456.036,193.292,456.036z"/>
			
				<line style="fill:none;stroke:#14100D;stroke-width:0.75;stroke-linecap:round;stroke-linejoin:round;stroke-miterlimit:10;" x1="195.979" y1="478.419" x2="242.471" y2="478.419"/>
			<path style="fill:none;stroke:#14100D;stroke-width:0.75;stroke-linecap:round;stroke-linejoin:round;stroke-miterlimit:10;" d="
				M196.186,476.129c0,0-1.31-6.754,7.837-7.707c9.147-0.953,11.626,9.997,11.626,9.997"/>
		</g>
		<g>
			<polygon style="fill:#B75E4A;" points="129.237,443.306 132.75,463.81 152.585,463.81 152.585,441.078 			"/>
			<path style="fill:#FF8D8D;" d="M129.237,456.036c0,0,2.693,15.488,2.903,20.092c0.209,4.604-2.302,8.999,18.836,8.999h17.445
				c0,0,4.638-1.889,0-10.681c-4.638-8.793-13.254-7.802-13.254-7.802s0.459-5.201,1.654-9.907
				C158.015,452.031,129.237,456.036,129.237,456.036z"/>
			
				<line style="fill:none;stroke:#14100D;stroke-width:0.75;stroke-linecap:round;stroke-linejoin:round;stroke-miterlimit:10;" x1="132.144" y1="478.419" x2="170.064" y2="478.419"/>
			<path style="fill:none;stroke:#14100D;stroke-width:0.75;stroke-linecap:round;stroke-linejoin:round;stroke-miterlimit:10;" d="
				M132.14,476.129c0,0-1.021-8.279,8.771-9.041c9.792-0.762,15.699,2.463,15.89,11.331"/>
		</g>
		<g>
			<path style="fill:#D97A52;" d="M186.324,219.498c0,0,5.885-4.924,6.965-5.764c1.081-0.841,1.705-10.417,7.942-18.584
				c6.236-8.166,17.521-8.166,9.948,2.524c-7.572,10.691-0.913,13.829,1.438,10.18c4.425-6.87,15.489-3.944,9.995-0.083
				c-5.494,3.861-8.018,5.494-9.057,9.651c-1.039,4.158-15.651,14.848-19.704,15.739
				C189.798,234.052,186.324,219.498,186.324,219.498z"/>
			<path style="fill:#B75E4A;" d="M189.688,229.229c1.204,2.428,2.643,4.266,4.163,3.932c4.053-0.891,18.665-11.581,19.704-15.739
				c1.039-4.157,3.564-5.791,9.057-9.651c5.494-3.861-5.571-6.786-9.995,0.083c-2.35,3.649-9.01,0.51-1.438-10.18
				c0,0-8.56,4.489-8.949,17.763c-0.389,13.274-13.865,14.938-13.865,14.938"/>
		</g>
		<path style="fill:#FF8D8D;" d="M119.836,283.988c0,0,0.477-22.791,0-33.499c-0.477-10.708,2.316-39.108,29.319-46.557
			c27.003-7.449,44.695,20.951,44.695,20.951l-16.494,24.624l7.067,34.482C184.424,283.988,143.126,292.813,119.836,283.988z"/>
		<path style="fill:#D86868;" d="M155.399,287.673c0,0,13.131-12.879,23.17-32.25l5.855,28.566
			C184.424,283.988,172.109,287.641,155.399,287.673z"/>
		<g>
			<path style="fill:#E5A95B;" d="M119.836,283.988c0,0-9.688,11.534-10.15,48.441c-0.461,36.907,12.456,115.335,12.456,115.335
				s17.531,1.384,33.216,0v-99.655l31.371,100.27c0,0,21.683,1.077,33.216,0c0,0-18.915-140.862-35.523-164.391
				C184.424,283.988,152.13,290.447,119.836,283.988z"/>
			<path style="fill:none;stroke:#14100D;stroke-width:0.75;stroke-linecap:round;stroke-linejoin:round;stroke-miterlimit:10;" d="
				M184.424,283.988c0,0-24.254,5.071-53.312,1.766"/>
			<path style="fill:none;stroke:#14100D;stroke-width:0.75;stroke-linecap:round;stroke-linejoin:round;stroke-miterlimit:10;" d="
				M122.061,298.647c0,0,14.841,2.442,21.416,2.442c0,0-2.442,15.968-2.63,19.35c-0.188,3.382-9.425,5.48-19.914,1.315
				C120.933,321.754,119.476,311.789,122.061,298.647z"/>
			<path style="fill:none;stroke:#14100D;stroke-width:0.75;stroke-linecap:round;stroke-linejoin:round;stroke-miterlimit:10;" d="
				M179.238,298.79c0,0-14.841,2.442-21.416,2.442c0,0,1.359,14.984,2.63,19.35c0.947,3.252,17.062,5.825,21.319-0.754
				C181.771,319.828,181.823,311.931,179.238,298.79z"/>
			<path style="fill:none;stroke:#14100D;stroke-width:0.75;stroke-linecap:round;stroke-linejoin:round;stroke-miterlimit:10;" d="
				M182.413,434.581c0,0,17.767,1.9,35.677,0"/>
			<path style="fill:#D3862A;" d="M155.359,348.109l-2.599-7.368l-5.523,107.509c0,0,4.756,0.172,8.122-0.486V348.109z"/>
			
				<line style="fill:none;stroke:#14100D;stroke-width:0.75;stroke-linecap:round;stroke-linejoin:round;stroke-miterlimit:10;" x1="165.777" y1="381.407" x2="152.585" y2="340.193"/>
			<path style="fill:none;stroke:#14100D;stroke-width:0.75;stroke-linecap:round;stroke-linejoin:round;stroke-miterlimit:10;" d="
				M120.078,434.581c0,0,22.452,0.845,35.281,0"/>
		</g>
		<path style="fill:none;stroke:#14100D;stroke-width:0.75;stroke-linecap:round;stroke-linejoin:round;stroke-miterlimit:10;" d="
			M161.678,231.878c0,0,2.629,11.104,4.276,15.381c0,0,3.774,0.015,10.965-7.786"/>
		<g>
			<path style="fill:#D97A52;" d="M236.238,243.213c0,0-3.884-6.555-12.624-7.283c0,0-10.924,4.855-20.392,6.312
				c0,0-3.554-6.709-10.886-15.098l-19.901,16.193c0,0,12.337,19.297,22.534,27.794
				C205.164,279.628,236.238,243.213,236.238,243.213z"/>
			<path style="fill:#B75E4A;" d="M189.984,266.362c1.677,1.783,3.357,3.413,4.984,4.768c10.196,8.497,41.27-27.918,41.27-27.918
				S204.711,269.215,189.984,266.362z"/>
			<path style="fill:#B75E4A;" d="M188.365,230.375c0,0-7.089,14.256-8.366,23.836c0,0-4.634-6.315-7.565-10.874L188.365,230.375z"
				/>
			<g>
				<path style="fill:#D97A52;" d="M223.614,235.93c0,0,1.373-3.214,1.373-5.441s-1.93-4.454,1.93-10.988
					c3.861-6.533,15.145-8.612,11.581-1.93c0,0-1.724,2.181-3.759,2.558s-3.602,7.16,3.09,6.468
					c2.812-0.29,8.839-5.108,14.331-10.133c0,0,1.874,4.146-4.319,10.223c0,0,0.668,3.41,0.668,4.93
					c0,1.519-1.407,6.016-12.273,11.597L223.614,235.93z"/>
				
					<path style="fill:none;stroke:#14100D;stroke-width:0.75;stroke-linecap:round;stroke-linejoin:round;stroke-miterlimit:10;" d="
					M247.842,226.686c0,0-2.599,3.367-5.92,3.188"/>
				
					<path style="fill:none;stroke:#14100D;stroke-width:0.75;stroke-linecap:round;stroke-linejoin:round;stroke-miterlimit:10;" d="
					M248.51,230.39c0,0-0.668,2.402-5.78,3.254"/>
			</g>
		</g>
		<g>
			<path style="fill:#335E5D;" d="M208.386,208.441l-16.398-29.066l35.99-24.703l30.666,17.889l11.5,28.537L242.639,224.6
				c-1.826,1.56-4.231,2.359-6.606,2.001c-1.521-0.229-2.862-0.936-2.992-2.687c-0.311-4.202,1.95-3.071,3.704-4.708
				c1.754-1.637,3.098-3.79,1.898-5.152c-1.2-1.362-9.674,0.652-12.535,6.918l-10.604-7.506c0,0,1.873-2.171,6.465-5.246
				c4.592-3.075-1.54-6.629-7.681-2.286c0,0-0.973,0.826-1.672,1.918C211.917,208.947,210.094,210.399,208.386,208.441z"/>
			
				<polyline style="fill:none;stroke:#14100D;stroke-width:0.75;stroke-linecap:round;stroke-linejoin:round;stroke-miterlimit:10;" points="
				195.134,184.951 227.953,203.824 260.772,177.837 			"/>
			
				<polyline style="fill:none;stroke:#14100D;stroke-width:0.75;stroke-linecap:round;stroke-linejoin:round;stroke-miterlimit:10;" points="
				258.645,172.56 227.338,196.128 191.988,179.375 			"/>
			
				<polygon style="fill:none;stroke:#14100D;stroke-width:0.75;stroke-linecap:round;stroke-linejoin:round;stroke-miterlimit:10;" points="
				229.052,158.663 214.649,168.424 233.932,177.837 245.597,168.25 			"/>
			<polygon style="fill:#EAD9CC;" points="263.272,191.643 248.844,202.597 253.12,212.756 267.515,200.816 			"/>
		</g>
		<path style="fill:#14100D;" d="M154.823,152.454c0,0-30.372-0.064-29.313,31.89c0.95,28.648-6.895,31.264-18.634,40.053
			c-11.738,8.789-9.973,38.738,38.764,38.738c48.737,0,39.996-29.951,34.188-38.087c-8.267-11.58,3.776-23.997,3.776-43.56
			C183.605,168.25,174.964,151.288,154.823,152.454z"/>
	</g>
</g>
</svg>
