<svg width="632" height="168" viewBox="0 0 632 168" fill="none" xmlns="http://www.w3.org/2000/svg">
<path d="M48.7863 12C48.7863 12 -31.7331 92.6496 48.7863 135.82C135.667 95.4024 48.7863 12 48.7863 12Z" fill="#006624"/>
<path d="M52.6945 41.9053C52.6457 41.5724 52.4814 41.2615 52.2211 41.0424C51.9611 40.8233 51.6288 40.7136 51.2941 40.7378C50.9594 40.762 50.6464 40.9183 50.4205 41.1726C50.1945 41.4269 50.0767 41.7581 50.0763 42.0947C50.0763 42.0947 50.0763 42.0947 50.0763 42.0947C50.0707 44.0386 50.0645 46.0692 50.0515 48.0697C49.9006 66.0276 49.605 83.9487 48.8862 101.771C47.8553 119.434 47.8463 137.858 41.56 153.883C40.7847 155.564 39.809 157.219 38.6141 158.509C38.3831 158.753 38.2411 159.075 38.2305 159.415C38.2198 159.755 38.3398 160.084 38.5663 160.331C38.7928 160.579 39.1095 160.728 39.449 160.747C39.7887 160.767 40.1216 160.654 40.3859 160.446C42.0882 159.085 43.4661 157.313 44.5876 155.55C53.7719 138.807 54.7889 120.064 55.8801 102.064C56.6113 83.9305 55.7162 65.8095 53.5017 47.8653C53.2518 45.8666 52.9807 43.8406 52.6945 41.9053Z" fill="#3E3E3E"/>
<path d="M116.153 125.5V41.86H130.073V113.14H166.193V125.5H116.153ZM198.767 126.58C193.807 126.58 189.487 125.78 185.807 124.18C182.207 122.58 179.247 120.34 176.927 117.46C174.607 114.58 172.887 111.34 171.767 107.74C170.647 104.06 170.087 100.26 170.087 96.34C170.087 92.42 170.607 88.62 171.647 84.94C172.767 81.18 174.447 77.82 176.687 74.86C178.927 71.9 181.807 69.58 185.327 67.9C188.847 66.14 193.007 65.26 197.807 65.26C202.367 65.26 206.327 66.06 209.687 67.66C213.127 69.18 215.967 71.34 218.207 74.14C220.447 76.86 222.087 79.98 223.127 83.5C224.247 87.02 224.807 90.78 224.807 94.78C224.807 95.34 224.767 96.14 224.687 97.18C224.687 98.22 224.607 99.26 224.447 100.3H183.407C183.727 105.02 185.327 108.62 188.207 111.1C191.087 113.58 194.767 114.82 199.247 114.82C202.527 114.82 205.527 114.3 208.247 113.26C210.967 112.22 213.447 110.58 215.687 108.34L223.007 117.22C220.527 119.46 218.047 121.26 215.567 122.62C213.087 123.98 210.487 124.98 207.767 125.62C205.127 126.26 202.127 126.58 198.767 126.58ZM211.727 93.58C211.887 92.94 211.967 92.3 211.967 91.66C212.047 91.02 212.087 90.38 212.087 89.74C212.087 87.98 211.767 86.3 211.127 84.7C210.567 83.1 209.687 81.7 208.487 80.5C207.287 79.22 205.807 78.22 204.047 77.5C202.287 76.7 200.287 76.3 198.047 76.3C194.927 76.3 192.287 76.98 190.127 78.34C188.047 79.7 186.407 81.46 185.207 83.62C184.087 85.7 183.407 87.98 183.167 90.46H216.047L211.727 93.58ZM273.929 125.5L272.969 115.54V88.18C272.969 84.34 271.809 81.46 269.489 79.54C267.169 77.54 263.929 76.54 259.769 76.54C256.569 76.54 253.409 77.18 250.289 78.46C247.249 79.66 244.449 81.54 241.889 84.1L234.449 75.34C238.289 71.74 242.369 69.18 246.689 67.66C251.009 66.06 255.729 65.26 260.849 65.26C268.849 65.26 275.049 67.3 279.449 71.38C283.929 75.38 286.169 80.98 286.169 88.18V125.5H273.929ZM255.569 126.58C251.169 126.58 247.249 125.78 243.809 124.18C240.449 122.58 237.809 120.34 235.889 117.46C234.049 114.58 233.129 111.22 233.129 107.38C233.129 104.1 233.809 101.26 235.169 98.86C236.609 96.46 238.449 94.58 240.689 93.22C242.609 92.02 244.849 91.18 247.409 90.7C249.969 90.14 252.649 89.86 255.449 89.86H274.049V99.82H257.369C255.929 99.82 254.489 99.98 253.049 100.3C251.609 100.54 250.329 101.02 249.209 101.74C248.409 102.38 247.729 103.18 247.169 104.14C246.689 105.1 246.449 106.22 246.449 107.5C246.449 110.06 247.409 112.1 249.329 113.62C251.329 115.06 253.969 115.78 257.249 115.78C260.129 115.78 262.729 115.14 265.049 113.86C267.449 112.58 269.369 110.82 270.809 108.58C272.249 106.34 272.969 103.82 272.969 101.02L277.049 107.62C276.089 111.78 274.569 115.3 272.489 118.18C270.409 120.98 267.929 123.1 265.049 124.54C262.169 125.9 259.009 126.58 255.569 126.58ZM303.722 125.5V76.66H292.442V66.34H303.842V59.62C303.842 54.74 304.642 50.94 306.242 48.22C307.842 45.42 309.962 43.5 312.602 42.46C315.322 41.34 318.322 40.78 321.602 40.78C323.922 40.78 325.962 41.02 327.722 41.5C329.562 41.9 331.282 42.5 332.882 43.3L328.562 53.38C327.762 52.9 326.882 52.54 325.922 52.3C325.042 51.98 324.082 51.82 323.042 51.82C320.882 51.82 319.322 52.54 318.362 53.98C317.482 55.34 317.042 57.22 317.042 59.62V66.34H330.002V76.66H317.042V125.5H303.722ZM343.452 149.86L355.212 121.54L332.652 66.34H347.292L362.292 108.22L377.532 66.34H391.932L357.852 149.86H343.452Z" fill="#006624"/>
<path d="M413.817 125.5V41.86H434.217L457.617 104.38H455.097L478.617 41.86H498.897V125.5H484.977V58.06L486.177 58.3L463.137 118.18H449.577L426.417 58.3L427.737 58.06V125.5H413.817ZM548.167 125.5L547.207 114.58V88.3C547.207 84.14 546.007 80.94 543.607 78.7C541.207 76.46 537.727 75.34 533.167 75.34C529.967 75.34 526.887 75.98 523.927 77.26C521.047 78.54 518.287 80.62 515.647 83.5L508.327 75.94C511.847 72.26 515.727 69.58 519.967 67.9C524.287 66.14 528.967 65.26 534.007 65.26C541.927 65.26 548.047 67.3 552.367 71.38C556.767 75.38 558.967 81.02 558.967 88.3V125.5H548.167ZM529.087 126.58C524.687 126.58 520.807 125.78 517.447 124.18C514.087 122.58 511.487 120.38 509.647 117.58C507.807 114.7 506.887 111.38 506.887 107.62C506.887 104.34 507.567 101.54 508.927 99.22C510.287 96.82 512.047 94.98 514.207 93.7C516.207 92.42 518.487 91.54 521.047 91.06C523.687 90.5 526.487 90.22 529.447 90.22H548.287V99.1H531.127C529.527 99.1 527.847 99.26 526.087 99.58C524.407 99.82 522.967 100.38 521.767 101.26C520.807 101.98 520.047 102.9 519.487 104.02C518.927 105.06 518.647 106.3 518.647 107.74C518.647 110.54 519.727 112.78 521.887 114.46C524.047 116.14 526.927 116.98 530.527 116.98C533.567 116.98 536.327 116.3 538.807 114.94C541.367 113.5 543.407 111.58 544.927 109.18C546.447 106.7 547.207 103.9 547.207 100.78L551.407 106.3C550.687 110.46 549.287 114.1 547.207 117.22C545.127 120.26 542.527 122.58 539.407 124.18C536.367 125.78 532.927 126.58 529.087 126.58ZM568.566 149.98V66.34H580.326V83.38L576.966 82.3C578.006 78.38 579.526 75.18 581.526 72.7C583.606 70.22 586.086 68.38 588.966 67.18C591.846 65.9 595.046 65.26 598.566 65.26C603.846 65.26 608.446 66.62 612.366 69.34C616.366 71.98 619.446 75.62 621.606 80.26C623.766 84.9 624.846 90.14 624.846 95.98C624.846 102.22 623.686 107.66 621.366 112.3C619.046 116.86 615.886 120.38 611.886 122.86C607.886 125.34 603.446 126.58 598.566 126.58C595.046 126.58 591.806 125.9 588.846 124.54C585.966 123.18 583.526 121.3 581.526 118.9C579.526 116.42 578.126 113.5 577.326 110.14L580.326 108.46V149.98H568.566ZM596.046 115.78C599.486 115.78 602.446 114.98 604.926 113.38C607.486 111.7 609.486 109.38 610.926 106.42C612.366 103.38 613.086 99.9 613.086 95.98C613.086 92.06 612.366 88.62 610.926 85.66C609.486 82.62 607.486 80.26 604.926 78.58C602.446 76.9 599.486 76.06 596.046 76.06C592.686 76.06 589.726 76.9 587.166 78.58C584.686 80.26 582.726 82.62 581.286 85.66C579.926 88.62 579.246 92.06 579.246 95.98C579.246 99.9 579.926 103.38 581.286 106.42C582.726 109.38 584.686 111.7 587.166 113.38C589.726 114.98 592.686 115.78 596.046 115.78Z" fill="#3E3E3E"/>
</svg>
